G04*
G04 #@! TF.GenerationSoftware,Altium Limited,Altium Designer,25.3.3 (18)*
G04*
G04 Layer_Color=255*
%FSLAX25Y25*%
%MOIN*%
G70*
G04*
G04 #@! TF.SameCoordinates,A146D230-DAC8-4C6A-9BAB-5E0106107E33*
G04*
G04*
G04 #@! TF.FilePolarity,Positive*
G04*
G01*
G75*
%ADD22R,0.03197X0.02593*%
%ADD25R,0.02593X0.03197*%
%ADD27R,0.03788X0.03681*%
%ADD30C,0.07000*%
%ADD32C,0.05900*%
%ADD37C,0.05200*%
%ADD38R,0.05200X0.05200*%
%ADD42R,0.05200X0.05200*%
%ADD44R,0.06500X0.03000*%
%ADD45R,0.04724X0.02598*%
%ADD46R,0.04331X0.04331*%
%ADD47R,0.03543X0.04134*%
%ADD48R,0.04016X0.04173*%
%ADD49R,0.04331X0.04331*%
%ADD51C,0.04331*%
%ADD52R,0.04134X0.04134*%
%ADD53C,0.04134*%
%ADD54C,0.06496*%
%ADD55R,0.06496X0.06496*%
%ADD56R,0.05937X0.05937*%
%ADD57C,0.05937*%
%ADD58C,0.05315*%
D22*
X515551Y443589D02*
D03*
Y448917D02*
D03*
X341831Y387507D02*
D03*
Y382178D02*
D03*
X410532Y355407D02*
D03*
Y360735D02*
D03*
X292487Y426869D02*
D03*
Y421541D02*
D03*
X307562D02*
D03*
Y426869D02*
D03*
X262336D02*
D03*
Y421541D02*
D03*
X322638Y426869D02*
D03*
Y421541D02*
D03*
X185728Y424908D02*
D03*
Y419580D02*
D03*
X615102Y353051D02*
D03*
Y358380D02*
D03*
X597342Y353051D02*
D03*
Y358380D02*
D03*
X579583Y353051D02*
D03*
Y358380D02*
D03*
X561823Y353235D02*
D03*
Y358563D02*
D03*
X469390Y352268D02*
D03*
Y357596D02*
D03*
X479921Y352268D02*
D03*
Y357596D02*
D03*
X200197Y419580D02*
D03*
Y424908D02*
D03*
X544063Y353051D02*
D03*
Y358380D02*
D03*
D25*
X144882Y349934D02*
D03*
X139553D02*
D03*
X159860D02*
D03*
X154531D02*
D03*
X274966Y350982D02*
D03*
X269638D02*
D03*
X221494D02*
D03*
X226823D02*
D03*
X250894D02*
D03*
X245566D02*
D03*
X405223Y446433D02*
D03*
X399895D02*
D03*
X405223Y472835D02*
D03*
X399895D02*
D03*
X144692Y361122D02*
D03*
X139363D02*
D03*
X526069Y475295D02*
D03*
X531398D02*
D03*
D27*
X277608Y428309D02*
D03*
Y422676D02*
D03*
X247654Y428309D02*
D03*
Y422676D02*
D03*
X232929Y428309D02*
D03*
Y422676D02*
D03*
X409744Y408427D02*
D03*
Y402794D02*
D03*
D30*
X431298Y378543D02*
D03*
Y388937D02*
D03*
Y399331D02*
D03*
X456664D02*
D03*
Y388937D02*
D03*
Y378543D02*
D03*
X482029Y399331D02*
D03*
Y388937D02*
D03*
Y378543D02*
D03*
X198172D02*
D03*
Y388937D02*
D03*
Y399331D02*
D03*
X248903Y378543D02*
D03*
Y388937D02*
D03*
Y399331D02*
D03*
X147441Y378543D02*
D03*
Y388937D02*
D03*
Y399331D02*
D03*
X172807D02*
D03*
Y388937D02*
D03*
Y378543D02*
D03*
X223538Y399331D02*
D03*
Y388937D02*
D03*
Y378543D02*
D03*
X299634D02*
D03*
Y388937D02*
D03*
Y399331D02*
D03*
X325000Y378543D02*
D03*
Y388937D02*
D03*
Y399331D02*
D03*
X274269D02*
D03*
Y388937D02*
D03*
Y378543D02*
D03*
X583491D02*
D03*
Y388937D02*
D03*
Y399331D02*
D03*
X507395Y378543D02*
D03*
Y388937D02*
D03*
Y399331D02*
D03*
X532760D02*
D03*
Y388937D02*
D03*
Y378543D02*
D03*
X608857D02*
D03*
Y388937D02*
D03*
Y399331D02*
D03*
X558126D02*
D03*
Y388937D02*
D03*
Y378543D02*
D03*
D32*
X492039Y349500D02*
D03*
X512039D02*
D03*
X522039D02*
D03*
X502039D02*
D03*
X622000Y439500D02*
D03*
Y459500D02*
D03*
Y449500D02*
D03*
Y469500D02*
D03*
X137000Y449500D02*
D03*
Y469500D02*
D03*
Y459500D02*
D03*
Y439500D02*
D03*
D37*
X220916Y455574D02*
D03*
X240409D02*
D03*
X220916Y476062D02*
D03*
X381619Y429528D02*
D03*
X370350D02*
D03*
X348917D02*
D03*
X186177Y448011D02*
D03*
X240409Y476062D02*
D03*
X403051Y429528D02*
D03*
D38*
X220916Y445731D02*
D03*
X240409D02*
D03*
X220916Y466219D02*
D03*
X240409D02*
D03*
D42*
X391461Y429528D02*
D03*
X360507D02*
D03*
X339075D02*
D03*
X176335Y448011D02*
D03*
X412894Y429528D02*
D03*
D44*
X456701Y349803D02*
D03*
Y359803D02*
D03*
X443701Y349803D02*
D03*
Y359803D02*
D03*
X456701Y354803D02*
D03*
X178496Y355215D02*
D03*
X191496Y350215D02*
D03*
Y360215D02*
D03*
X178496Y350215D02*
D03*
Y360215D02*
D03*
X333169Y355413D02*
D03*
X320169Y360413D02*
D03*
Y350413D02*
D03*
X333169Y360413D02*
D03*
Y350413D02*
D03*
D45*
X181201Y469173D02*
D03*
Y476102D02*
D03*
D46*
X548425Y475000D02*
D03*
X555512D02*
D03*
X491831Y439272D02*
D03*
X422835Y446555D02*
D03*
X577539Y445890D02*
D03*
X602953Y436024D02*
D03*
X422195Y470866D02*
D03*
X378642Y449606D02*
D03*
X491831Y461319D02*
D03*
X327608Y449606D02*
D03*
X353125D02*
D03*
X276575D02*
D03*
X302092D02*
D03*
D47*
X469390Y429331D02*
D03*
X463681D02*
D03*
X445965Y477264D02*
D03*
X451673D02*
D03*
X357691Y473228D02*
D03*
X351982D02*
D03*
X383760D02*
D03*
X389468D02*
D03*
X463681Y461286D02*
D03*
X469390D02*
D03*
X445965Y445308D02*
D03*
X451673D02*
D03*
X341803Y473228D02*
D03*
X336094D02*
D03*
X463681Y445308D02*
D03*
X469390D02*
D03*
X445965Y461286D02*
D03*
X451673D02*
D03*
X325914Y473228D02*
D03*
X320205D02*
D03*
X310025D02*
D03*
X304317D02*
D03*
X373580D02*
D03*
X367871D02*
D03*
X445965Y429331D02*
D03*
X451673D02*
D03*
X463681Y477264D02*
D03*
X469390D02*
D03*
X272539Y473228D02*
D03*
X278248D02*
D03*
X294137D02*
D03*
X288428D02*
D03*
D48*
X199661Y476369D02*
D03*
Y470637D02*
D03*
X200327Y455627D02*
D03*
Y449895D02*
D03*
D49*
X515256Y426575D02*
D03*
Y433661D02*
D03*
X585532Y469291D02*
D03*
D51*
X491831Y429429D02*
D03*
X422835Y456398D02*
D03*
X595374Y469291D02*
D03*
X577539Y436047D02*
D03*
X602953Y445866D02*
D03*
X422195Y480709D02*
D03*
X378642Y459449D02*
D03*
X491831Y471161D02*
D03*
X327608Y459449D02*
D03*
X353125D02*
D03*
X276575D02*
D03*
X302092D02*
D03*
D52*
X150295Y478445D02*
D03*
D53*
X155295D02*
D03*
X160295D02*
D03*
D54*
X391772Y412573D02*
D03*
Y402573D02*
D03*
Y392573D02*
D03*
Y352573D02*
D03*
Y362573D02*
D03*
Y372573D02*
D03*
Y382573D02*
D03*
X361772Y412573D02*
D03*
Y402573D02*
D03*
Y392573D02*
D03*
Y362573D02*
D03*
Y372573D02*
D03*
Y382573D02*
D03*
D55*
Y352573D02*
D03*
D56*
X527618Y427421D02*
D03*
D57*
X537618D02*
D03*
X547618D02*
D03*
X557618D02*
D03*
Y457421D02*
D03*
X547618D02*
D03*
X537618D02*
D03*
X527618D02*
D03*
D58*
X160236Y426870D02*
D03*
Y462303D02*
D03*
X150394Y426870D02*
D03*
Y462303D02*
D03*
M02*
