G04*
G04 #@! TF.GenerationSoftware,Altium Limited,Altium Designer,24.7.2 (38)*
G04*
G04 Layer_Color=255*
%FSLAX25Y25*%
%MOIN*%
G70*
G04*
G04 #@! TF.SameCoordinates,7935D143-5E11-467B-B2BF-9960343BBFE2*
G04*
G04*
G04 #@! TF.FilePolarity,Positive*
G04*
G01*
G75*
%ADD33C,0.07000*%
%ADD34C,0.05900*%
%ADD37C,0.05200*%
%ADD38R,0.05200X0.05200*%
%ADD42R,0.05200X0.05200*%
%ADD46R,0.04331X0.04331*%
%ADD49R,0.04331X0.04331*%
%ADD51C,0.04331*%
%ADD52R,0.04134X0.04134*%
%ADD53C,0.04134*%
%ADD54C,0.06496*%
%ADD55R,0.06496X0.06496*%
%ADD56R,0.05937X0.05937*%
%ADD57C,0.05937*%
%ADD58C,0.05315*%
D33*
X431298Y399331D02*
D03*
Y388937D02*
D03*
Y378543D02*
D03*
X482029Y399331D02*
D03*
Y388937D02*
D03*
Y378543D02*
D03*
X456664D02*
D03*
Y388937D02*
D03*
Y399331D02*
D03*
X198172Y378543D02*
D03*
Y388937D02*
D03*
Y399331D02*
D03*
X248903Y378543D02*
D03*
Y388937D02*
D03*
Y399331D02*
D03*
X147441Y378543D02*
D03*
Y388937D02*
D03*
Y399331D02*
D03*
X172807D02*
D03*
Y388937D02*
D03*
Y378543D02*
D03*
X223538Y399331D02*
D03*
Y388937D02*
D03*
Y378543D02*
D03*
X299634D02*
D03*
Y388937D02*
D03*
Y399331D02*
D03*
X325000Y378543D02*
D03*
Y388937D02*
D03*
Y399331D02*
D03*
X274269D02*
D03*
Y388937D02*
D03*
Y378543D02*
D03*
X583491D02*
D03*
Y388937D02*
D03*
Y399331D02*
D03*
X507395Y378543D02*
D03*
Y388937D02*
D03*
Y399331D02*
D03*
X532760D02*
D03*
Y388937D02*
D03*
Y378543D02*
D03*
X608857D02*
D03*
Y388937D02*
D03*
Y399331D02*
D03*
X558126D02*
D03*
Y388937D02*
D03*
Y378543D02*
D03*
D34*
X622008Y469508D02*
D03*
Y449508D02*
D03*
Y459508D02*
D03*
Y439508D02*
D03*
X501988Y349488D02*
D03*
X521988D02*
D03*
X511988D02*
D03*
X491988D02*
D03*
X137008Y439488D02*
D03*
Y459488D02*
D03*
Y469488D02*
D03*
Y449488D02*
D03*
D37*
X220916Y455574D02*
D03*
X240409D02*
D03*
X220916Y476062D02*
D03*
X381619Y429528D02*
D03*
X370350D02*
D03*
X348917D02*
D03*
X186177Y448011D02*
D03*
X240409Y476062D02*
D03*
X403051Y429528D02*
D03*
D38*
X220916Y445731D02*
D03*
X240409D02*
D03*
X220916Y466219D02*
D03*
X240409D02*
D03*
D42*
X391461Y429528D02*
D03*
X360507D02*
D03*
X339075D02*
D03*
X176335Y448011D02*
D03*
X412894Y429528D02*
D03*
D46*
X422835Y446555D02*
D03*
X488091Y438878D02*
D03*
X577539Y445890D02*
D03*
X602953Y436024D02*
D03*
X422195Y470866D02*
D03*
X378642Y449606D02*
D03*
X488091Y460925D02*
D03*
X327608Y449606D02*
D03*
X353125D02*
D03*
X276575D02*
D03*
X302092D02*
D03*
D49*
X585532Y469291D02*
D03*
D51*
X422835Y456398D02*
D03*
X488091Y429035D02*
D03*
X595374Y469291D02*
D03*
X577539Y436047D02*
D03*
X602953Y445866D02*
D03*
X422195Y480709D02*
D03*
X378642Y459449D02*
D03*
X488091Y470768D02*
D03*
X327608Y459449D02*
D03*
X353125D02*
D03*
X276575D02*
D03*
X302092D02*
D03*
D52*
X151772Y478150D02*
D03*
D53*
X156772D02*
D03*
X161772D02*
D03*
D54*
X391772Y412573D02*
D03*
Y402573D02*
D03*
Y392573D02*
D03*
Y352573D02*
D03*
Y362573D02*
D03*
Y372573D02*
D03*
Y382573D02*
D03*
X361772Y412573D02*
D03*
Y402573D02*
D03*
Y392573D02*
D03*
Y362573D02*
D03*
Y372573D02*
D03*
Y382573D02*
D03*
D55*
Y352573D02*
D03*
D56*
X527618Y427421D02*
D03*
D57*
X537618D02*
D03*
X547618D02*
D03*
X557618D02*
D03*
Y457421D02*
D03*
X547618D02*
D03*
X537618D02*
D03*
X527618D02*
D03*
D58*
X160236Y426870D02*
D03*
Y462303D02*
D03*
X150394Y426870D02*
D03*
Y462303D02*
D03*
M02*
