G04*
G04 #@! TF.GenerationSoftware,Altium Limited,Altium Designer,24.7.2 (38)*
G04*
G04 Layer_Physical_Order=2*
G04 Layer_Color=16711680*
%FSLAX25Y25*%
%MOIN*%
G70*
G04*
G04 #@! TF.SameCoordinates,DEBB6A6C-C8D4-480C-A923-299F0231662F*
G04*
G04*
G04 #@! TF.FilePolarity,Positive*
G04*
G01*
G75*
%ADD18C,0.01000*%
%ADD30C,0.05900*%
%ADD34C,0.07000*%
%ADD37C,0.05200*%
%ADD38R,0.05200X0.05200*%
%ADD42R,0.05200X0.05200*%
%ADD46R,0.04331X0.04331*%
%ADD49R,0.04331X0.04331*%
%ADD50C,0.02067*%
%ADD51C,0.04331*%
%ADD52R,0.04134X0.04134*%
%ADD53C,0.04134*%
%ADD54C,0.06496*%
%ADD55R,0.06496X0.06496*%
%ADD56R,0.05937X0.05937*%
%ADD57C,0.05937*%
%ADD58C,0.05315*%
%ADD59C,0.05000*%
D18*
X511588Y391660D02*
G03*
X510117Y393131I-4194J-2723D01*
G01*
X542815Y345669D02*
X556978Y359832D01*
Y377395D01*
X558126Y378543D01*
X430331Y349393D02*
X431616D01*
X432382Y348628D01*
X430209Y349515D02*
X430331Y349393D01*
X129429Y344193D02*
X132874Y340748D01*
X513248D01*
X521988Y349488D01*
X243903Y362691D02*
Y383937D01*
Y362691D02*
X248721Y357874D01*
X429815Y349515D02*
X430209D01*
X262020Y346449D02*
Y352013D01*
X248903Y365129D02*
Y378543D01*
Y365129D02*
X262020Y352013D01*
X294291Y436811D02*
X328937D01*
X331791Y433957D01*
X300426Y447941D02*
X302067Y449582D01*
X284878Y403693D02*
Y433205D01*
X302067Y449582D02*
Y450394D01*
X299614Y447941D02*
X300426D01*
X284878Y433205D02*
X299614Y447941D01*
X337894Y439272D02*
X346378Y430787D01*
X325394Y439272D02*
X337894D01*
X311221Y453445D02*
X325394Y439272D01*
X575575Y447555D02*
X575873D01*
X559350Y463779D02*
X575575Y447555D01*
X575873D02*
X576132Y447296D01*
X543976Y463779D02*
X559350D01*
X576132Y446998D02*
Y447296D01*
X587795Y420866D02*
X602953Y436024D01*
X534173Y420866D02*
X587795D01*
X129429Y344193D02*
Y483071D01*
X133563Y487205D02*
X152461D01*
X129429Y483071D02*
X133563Y487205D01*
X198172Y367576D02*
Y378543D01*
Y367576D02*
X211811Y353937D01*
X152461Y487205D02*
X156772Y482894D01*
Y478150D02*
Y482894D01*
X147441Y378543D02*
X172807D01*
X587979Y474803D02*
X595066Y467717D01*
X378917Y459764D02*
X382307Y456374D01*
X240409Y466219D02*
X259623Y485433D01*
X236211Y462021D02*
X240409Y466219D01*
X344980Y402165D02*
Y402658D01*
X329429Y418209D02*
X344980Y402658D01*
X313536Y455574D02*
X327475Y441634D01*
X342717D01*
X353642Y430709D01*
X284878Y403693D02*
X299634Y388937D01*
X261910Y401296D02*
Y435728D01*
X276575Y450394D01*
X300000Y418209D02*
X329429D01*
X299437Y418771D02*
X300000Y418209D01*
X540945Y362303D02*
X551181D01*
X551378Y362500D01*
X357082Y377756D02*
X404134D01*
X420472Y394094D02*
X509154D01*
X404134Y377756D02*
X420472Y394094D01*
X410532Y367618D02*
Y368171D01*
X431298Y388937D01*
X423756Y355575D02*
X429815Y349515D01*
X423756Y355575D02*
Y365732D01*
X382307Y430216D02*
Y456374D01*
X381619Y429528D02*
X382307Y430216D01*
X386014Y433923D01*
X399345D01*
X381619Y392726D02*
X391772Y382573D01*
X381619Y392726D02*
Y429528D01*
X378223Y474705D02*
X459449D01*
X353125Y449606D02*
X378223Y474705D01*
X259623Y485433D02*
X473425D01*
X160236Y411901D02*
Y426870D01*
Y411901D02*
X172807Y399331D01*
X171063Y437697D02*
X213104D01*
X220916Y445509D01*
X160236Y426870D02*
X171063Y437697D01*
X487402Y364075D02*
X501988Y349488D01*
X427756Y364075D02*
X487402D01*
X288634Y354329D02*
Y377937D01*
X263732Y360480D02*
Y368007D01*
Y360480D02*
X264173Y360039D01*
X273174Y453445D02*
X311221D01*
X391461Y429528D02*
X395561Y425428D01*
X408794D01*
X412894Y429528D01*
X353642Y381196D02*
X357082Y377756D01*
X353642Y381196D02*
Y430709D01*
X412894Y429528D02*
Y461565D01*
X422195Y470866D01*
X509071Y465969D02*
X547618Y427421D01*
X485534Y465969D02*
X509071D01*
X473425Y485433D02*
X488091Y470768D01*
X492126Y474803D01*
X587979D01*
X365645Y477043D02*
X365645Y477043D01*
X350306Y472195D02*
X355155Y477043D01*
X365645D01*
X350197Y472195D02*
X350306D01*
X365645Y477043D02*
X462720D01*
X327608Y449606D02*
X350197Y472195D01*
X240311Y455574D02*
X313536D01*
X346521Y430787D02*
X347781Y429528D01*
X346378Y430787D02*
X346521D01*
X347781Y429528D02*
X348917D01*
X527618Y427421D02*
X534173Y420866D01*
X243903Y383937D02*
X248903Y388937D01*
X263732Y368007D02*
X274269Y378543D01*
X248903Y388937D02*
X274269D01*
X517323Y396752D02*
X530315Y383760D01*
X459449Y474705D02*
X517323Y416831D01*
Y396752D02*
Y416831D01*
X530315Y383760D02*
X578314D01*
X522342Y399355D02*
Y417421D01*
X462720Y477043D02*
X522342Y417421D01*
X456664Y399331D02*
X458287D01*
X460060Y401005D02*
X488091Y429035D01*
X459962Y401005D02*
X460060D01*
X458287Y399331D02*
X459962Y401005D01*
X423756Y365732D02*
X428302Y370278D01*
X499129D01*
X522342Y399355D02*
X532760Y388937D01*
X578314Y383760D02*
X583491Y388937D01*
X608857D01*
X499129Y370278D02*
X507395Y378543D01*
X511588Y391660D02*
X540945Y362303D01*
X509154Y394094D02*
X510117Y393131D01*
X431298Y378543D02*
X456664D01*
X288634Y377937D02*
X299634Y388937D01*
X261910Y401296D02*
X274269Y388937D01*
X187778D02*
X198172Y399331D01*
X172807Y388937D02*
X187778D01*
X240311Y445731D02*
X265460D01*
X236211Y449831D02*
Y462021D01*
Y449831D02*
X240311Y445731D01*
X220916D02*
X240311D01*
X265460D02*
X273174Y453445D01*
X423327Y480709D02*
X470794D01*
X476604Y474898D01*
Y474898D02*
X485534Y465969D01*
X476604Y474898D02*
Y474898D01*
X399345Y433923D02*
X403051Y430217D01*
X223179Y396821D02*
X223228Y396772D01*
X537618Y457421D02*
X543976Y463779D01*
X298967Y375935D02*
X299114Y376083D01*
D30*
X492039Y349500D02*
D03*
X512039D02*
D03*
X522039D02*
D03*
X502039D02*
D03*
X622000Y439500D02*
D03*
Y459500D02*
D03*
Y449500D02*
D03*
Y469500D02*
D03*
X137000Y449500D02*
D03*
Y469500D02*
D03*
Y459500D02*
D03*
Y439500D02*
D03*
D34*
X431298Y399331D02*
D03*
Y388937D02*
D03*
Y378543D02*
D03*
X482029Y399331D02*
D03*
Y388937D02*
D03*
Y378543D02*
D03*
X456664D02*
D03*
Y388937D02*
D03*
Y399331D02*
D03*
X198172Y378543D02*
D03*
Y388937D02*
D03*
Y399331D02*
D03*
X248903Y378543D02*
D03*
Y388937D02*
D03*
Y399331D02*
D03*
X147441Y378543D02*
D03*
Y388937D02*
D03*
Y399331D02*
D03*
X172807D02*
D03*
Y388937D02*
D03*
Y378543D02*
D03*
X223538Y399331D02*
D03*
Y388937D02*
D03*
Y378543D02*
D03*
X299634D02*
D03*
Y388937D02*
D03*
Y399331D02*
D03*
X325000Y378543D02*
D03*
Y388937D02*
D03*
Y399331D02*
D03*
X274269D02*
D03*
Y388937D02*
D03*
Y378543D02*
D03*
X583491D02*
D03*
Y388937D02*
D03*
Y399331D02*
D03*
X507395Y378543D02*
D03*
Y388937D02*
D03*
Y399331D02*
D03*
X532760D02*
D03*
Y388937D02*
D03*
Y378543D02*
D03*
X608857D02*
D03*
Y388937D02*
D03*
Y399331D02*
D03*
X558126D02*
D03*
Y388937D02*
D03*
Y378543D02*
D03*
D37*
X220916Y455574D02*
D03*
X240409D02*
D03*
X220916Y476062D02*
D03*
X381619Y429528D02*
D03*
X370350D02*
D03*
X348917D02*
D03*
X186177Y448011D02*
D03*
X240409Y476062D02*
D03*
X403051Y429528D02*
D03*
D38*
X220916Y445731D02*
D03*
X240409D02*
D03*
X220916Y466219D02*
D03*
X240409D02*
D03*
D42*
X391461Y429528D02*
D03*
X360507D02*
D03*
X339075D02*
D03*
X176335Y448011D02*
D03*
X412894Y429528D02*
D03*
D46*
X422835Y446555D02*
D03*
X488091Y438878D02*
D03*
X577539Y445890D02*
D03*
X602953Y436024D02*
D03*
X422195Y470866D02*
D03*
X378642Y449606D02*
D03*
X488091Y460925D02*
D03*
X327608Y449606D02*
D03*
X353125D02*
D03*
X276575D02*
D03*
X302092D02*
D03*
D49*
X585532Y469291D02*
D03*
D50*
X462500Y344094D02*
X465158Y346752D01*
X414370Y344094D02*
X462500D01*
X465158Y346752D02*
X469587D01*
X410433Y348031D02*
X414370Y344094D01*
X288878Y345472D02*
X307677Y364272D01*
X341043D01*
X410433Y348031D02*
Y348819D01*
X378642Y449606D02*
Y450197D01*
X375984Y447264D02*
X377195Y448474D01*
X377510D01*
X375984Y396785D02*
Y447264D01*
X361772Y382573D02*
X375984Y396785D01*
X377510Y448474D02*
X378642Y449606D01*
X539488Y469291D02*
X585532D01*
X527618Y457421D02*
X539488Y469291D01*
D51*
X422835Y456398D02*
D03*
X488091Y429035D02*
D03*
X595374Y469291D02*
D03*
X577539Y436047D02*
D03*
X602953Y445866D02*
D03*
X422195Y480709D02*
D03*
X378642Y459449D02*
D03*
X488091Y470768D02*
D03*
X327608Y459449D02*
D03*
X353125D02*
D03*
X276575D02*
D03*
X302092D02*
D03*
D52*
X151772Y478150D02*
D03*
D53*
X156772D02*
D03*
X161772D02*
D03*
D54*
X391772Y412573D02*
D03*
Y402573D02*
D03*
Y392573D02*
D03*
Y352573D02*
D03*
Y362573D02*
D03*
Y372573D02*
D03*
Y382573D02*
D03*
X361772Y412573D02*
D03*
Y402573D02*
D03*
Y392573D02*
D03*
Y362573D02*
D03*
Y372573D02*
D03*
Y382573D02*
D03*
D55*
Y352573D02*
D03*
D56*
X527618Y427421D02*
D03*
D57*
X537618D02*
D03*
X547618D02*
D03*
X557618D02*
D03*
Y457421D02*
D03*
X547618D02*
D03*
X537618D02*
D03*
X527618D02*
D03*
D58*
X160236Y426870D02*
D03*
Y462303D02*
D03*
X150394Y426870D02*
D03*
Y462303D02*
D03*
D59*
X542815Y345669D02*
D03*
X432382Y348628D02*
D03*
X288878Y345472D02*
D03*
X248721Y357874D02*
D03*
X294291Y436811D02*
D03*
X211811Y353937D02*
D03*
X344980Y402165D02*
D03*
X331791Y433957D02*
D03*
X551378Y362500D02*
D03*
X341043Y364272D02*
D03*
X410433Y348819D02*
D03*
X410532Y367618D02*
D03*
X469587Y346752D02*
D03*
X264173Y360039D02*
D03*
X262020Y346449D02*
D03*
X288634Y354329D02*
D03*
X299437Y418771D02*
D03*
X427756Y364075D02*
D03*
M02*
