G04*
G04 #@! TF.GenerationSoftware,Altium Limited,Altium Designer,24.7.2 (38)*
G04*
G04 Layer_Color=128*
%FSLAX25Y25*%
%MOIN*%
G70*
G04*
G04 #@! TF.SameCoordinates,DEBB6A6C-C8D4-480C-A923-299F0231662F*
G04*
G04*
G04 #@! TF.FilePolarity,Positive*
G04*
G01*
G75*
%ADD60C,0.00200*%
D60*
X490089Y349500D02*
X493989D01*
X492039Y347550D02*
Y351450D01*
X510089Y349500D02*
X513989D01*
X512039Y347550D02*
Y351450D01*
X520089Y349500D02*
X523989D01*
X522039Y347550D02*
Y351450D01*
X500089Y349500D02*
X503989D01*
X502039Y347550D02*
Y351450D01*
X620050Y439500D02*
X623950D01*
X622000Y437550D02*
Y441450D01*
X620050Y459500D02*
X623950D01*
X622000Y457550D02*
Y461450D01*
X620050Y449500D02*
X623950D01*
X622000Y447550D02*
Y451450D01*
X620050Y469500D02*
X623950D01*
X622000Y467550D02*
Y471450D01*
X135050Y449500D02*
X138950D01*
X137000Y447550D02*
Y451450D01*
X135050Y469500D02*
X138950D01*
X137000Y467550D02*
Y471450D01*
X135050Y459500D02*
X138950D01*
X137000Y457550D02*
Y461450D01*
X135050Y439500D02*
X138950D01*
X137000Y437550D02*
Y441450D01*
X421358Y456398D02*
X424311D01*
X422835Y454921D02*
Y457874D01*
X421358Y446555D02*
X424311D01*
X422835Y445079D02*
Y448032D01*
X150197Y478150D02*
X153347D01*
X151772Y476575D02*
Y479724D01*
X155197Y478150D02*
X158346D01*
X156772Y476575D02*
Y479724D01*
X160197Y478150D02*
X163347D01*
X161772Y476575D02*
Y479724D01*
X486614Y429035D02*
X489567D01*
X488091Y427559D02*
Y430512D01*
X486614Y438878D02*
X489567D01*
X488091Y437402D02*
Y440354D01*
X428798Y399331D02*
X433798D01*
X431298Y396831D02*
Y401831D01*
X428798Y388937D02*
X433798D01*
X431298Y386437D02*
Y391437D01*
X428798Y378543D02*
X433798D01*
X431298Y376043D02*
Y381043D01*
X479529Y399331D02*
X484529D01*
X482029Y396831D02*
Y401831D01*
X479529Y388937D02*
X484529D01*
X482029Y386437D02*
Y391437D01*
X479529Y378543D02*
X484529D01*
X482029Y376043D02*
Y381043D01*
X454164Y378543D02*
X459164D01*
X456664Y376043D02*
Y381043D01*
X454164Y388937D02*
X459164D01*
X456664Y386437D02*
Y391437D01*
X454164Y399331D02*
X459164D01*
X456664Y396831D02*
Y401831D01*
X195672Y378543D02*
X200672D01*
X198172Y376043D02*
Y381043D01*
X195672Y388937D02*
X200672D01*
X198172Y386437D02*
Y391437D01*
X195672Y399331D02*
X200672D01*
X198172Y396831D02*
Y401831D01*
X584055Y469291D02*
X587008D01*
X585532Y467815D02*
Y470768D01*
X593898Y469291D02*
X596850D01*
X595374Y467815D02*
Y470768D01*
X246403Y378543D02*
X251403D01*
X248903Y376043D02*
Y381043D01*
X246403Y388937D02*
X251403D01*
X248903Y386437D02*
Y391437D01*
X246403Y399331D02*
X251403D01*
X248903Y396831D02*
Y401831D01*
X144941Y378543D02*
X149941D01*
X147441Y376043D02*
Y381043D01*
X144941Y388937D02*
X149941D01*
X147441Y386437D02*
Y391437D01*
X144941Y399331D02*
X149941D01*
X147441Y396831D02*
Y401831D01*
X389606Y412573D02*
X393937D01*
X391772Y410407D02*
Y414738D01*
X389606Y402573D02*
X393937D01*
X391772Y400408D02*
Y404738D01*
X389606Y392573D02*
X393937D01*
X391772Y390407D02*
Y394738D01*
X389606Y352573D02*
X393937D01*
X391772Y350408D02*
Y354738D01*
X389606Y362573D02*
X393937D01*
X391772Y360407D02*
Y364738D01*
X389606Y372573D02*
X393937D01*
X391772Y370408D02*
Y374738D01*
X389606Y382573D02*
X393937D01*
X391772Y380408D02*
Y384738D01*
X359606Y412573D02*
X363937D01*
X361772Y410407D02*
Y414738D01*
X359606Y402573D02*
X363937D01*
X361772Y400408D02*
Y404738D01*
X359606Y392573D02*
X363937D01*
X361772Y390407D02*
Y394738D01*
X359606Y352573D02*
X363937D01*
X361772Y350408D02*
Y354738D01*
X359606Y362573D02*
X363937D01*
X361772Y360407D02*
Y364738D01*
X359606Y372573D02*
X363937D01*
X361772Y370408D02*
Y374738D01*
X359606Y382573D02*
X363937D01*
X361772Y380408D02*
Y384738D01*
X170307Y399331D02*
X175306D01*
X172807Y396831D02*
Y401831D01*
X170307Y388937D02*
X175306D01*
X172807Y386437D02*
Y391437D01*
X170307Y378543D02*
X175306D01*
X172807Y376043D02*
Y381043D01*
X576062Y445890D02*
X579015D01*
X577539Y444413D02*
Y447366D01*
X576062Y436047D02*
X579015D01*
X577539Y434571D02*
Y437524D01*
X601476Y436024D02*
X604429D01*
X602953Y434547D02*
Y437500D01*
X601476Y445866D02*
X604429D01*
X602953Y444390D02*
Y447342D01*
X221038Y399331D02*
X226038D01*
X223538Y396831D02*
Y401831D01*
X221038Y388937D02*
X226038D01*
X223538Y386437D02*
Y391437D01*
X221038Y378543D02*
X226038D01*
X223538Y376043D02*
Y381043D01*
X297134Y378543D02*
X302134D01*
X299634Y376043D02*
Y381043D01*
X297134Y388937D02*
X302134D01*
X299634Y386437D02*
Y391437D01*
X297134Y399331D02*
X302134D01*
X299634Y396831D02*
Y401831D01*
X322500Y378543D02*
X327500D01*
X325000Y376043D02*
Y381043D01*
X322500Y388937D02*
X327500D01*
X325000Y386437D02*
Y391437D01*
X322500Y399331D02*
X327500D01*
X325000Y396831D02*
Y401831D01*
X271769Y399331D02*
X276769D01*
X274269Y396831D02*
Y401831D01*
X271769Y388937D02*
X276769D01*
X274269Y386437D02*
Y391437D01*
X271769Y378543D02*
X276769D01*
X274269Y376043D02*
Y381043D01*
X420718Y480709D02*
X423671D01*
X422195Y479232D02*
Y482185D01*
X420718Y470866D02*
X423671D01*
X422195Y469390D02*
Y472342D01*
X219316Y455574D02*
X222516D01*
X220916Y453974D02*
Y457174D01*
X219316Y445731D02*
X222516D01*
X220916Y444131D02*
Y447331D01*
X238809Y455574D02*
X242009D01*
X240409Y453974D02*
Y457174D01*
X238809Y445731D02*
X242009D01*
X240409Y444131D02*
Y447331D01*
X219316Y476062D02*
X222516D01*
X220916Y474462D02*
Y477662D01*
X219316Y466219D02*
X222516D01*
X220916Y464619D02*
Y467819D01*
X525650Y427421D02*
X529587D01*
X527618Y425453D02*
Y429390D01*
X535650Y427421D02*
X539587D01*
X537618Y425453D02*
Y429390D01*
X545650Y427421D02*
X549587D01*
X547618Y425453D02*
Y429390D01*
X555650Y427421D02*
X559587D01*
X557618Y425453D02*
Y429390D01*
X555650Y457421D02*
X559587D01*
X557618Y455453D02*
Y459390D01*
X545650Y457421D02*
X549587D01*
X547618Y455453D02*
Y459390D01*
X535650Y457421D02*
X539587D01*
X537618Y455453D02*
Y459390D01*
X525650Y457421D02*
X529587D01*
X527618Y455453D02*
Y459390D01*
X377165Y449606D02*
X380118D01*
X378642Y448130D02*
Y451083D01*
X377165Y459449D02*
X380118D01*
X378642Y457972D02*
Y460925D01*
X158563Y426870D02*
X161909D01*
X160236Y425197D02*
Y428543D01*
X158563Y462303D02*
X161909D01*
X160236Y460630D02*
Y463976D01*
X389861Y429528D02*
X393061D01*
X391461Y427928D02*
Y431128D01*
X380019Y429528D02*
X383219D01*
X381619Y427928D02*
Y431128D01*
X358907Y429528D02*
X362107D01*
X360507Y427928D02*
Y431128D01*
X368750Y429528D02*
X371950D01*
X370350Y427928D02*
Y431128D01*
X347317Y429528D02*
X350517D01*
X348917Y427928D02*
Y431128D01*
X337475Y429528D02*
X340675D01*
X339075Y427928D02*
Y431128D01*
X580991Y378543D02*
X585991D01*
X583491Y376043D02*
Y381043D01*
X580991Y388937D02*
X585991D01*
X583491Y386437D02*
Y391437D01*
X580991Y399331D02*
X585991D01*
X583491Y396831D02*
Y401831D01*
X504895Y378543D02*
X509895D01*
X507395Y376043D02*
Y381043D01*
X504895Y388937D02*
X509895D01*
X507395Y386437D02*
Y391437D01*
X504895Y399331D02*
X509895D01*
X507395Y396831D02*
Y401831D01*
X174735Y448011D02*
X177935D01*
X176335Y446411D02*
Y449611D01*
X184577Y448011D02*
X187777D01*
X186177Y446411D02*
Y449611D01*
X238809Y466219D02*
X242009D01*
X240409Y464619D02*
Y467819D01*
X238809Y476062D02*
X242009D01*
X240409Y474462D02*
Y477662D01*
X411294Y429528D02*
X414494D01*
X412894Y427928D02*
Y431128D01*
X401451Y429528D02*
X404651D01*
X403051Y427928D02*
Y431128D01*
X486614Y460925D02*
X489567D01*
X488091Y459449D02*
Y462402D01*
X486614Y470768D02*
X489567D01*
X488091Y469291D02*
Y472244D01*
X148721Y426870D02*
X152067D01*
X150394Y425197D02*
Y428543D01*
X148721Y462303D02*
X152067D01*
X150394Y460630D02*
Y463976D01*
X530260Y399331D02*
X535260D01*
X532760Y396831D02*
Y401831D01*
X530260Y388937D02*
X535260D01*
X532760Y386437D02*
Y391437D01*
X530260Y378543D02*
X535260D01*
X532760Y376043D02*
Y381043D01*
X606357Y378543D02*
X611357D01*
X608857Y376043D02*
Y381043D01*
X606357Y388937D02*
X611357D01*
X608857Y386437D02*
Y391437D01*
X606357Y399331D02*
X611357D01*
X608857Y396831D02*
Y401831D01*
X555626Y399331D02*
X560626D01*
X558126Y396831D02*
Y401831D01*
X555626Y388937D02*
X560626D01*
X558126Y386437D02*
Y391437D01*
X555626Y378543D02*
X560626D01*
X558126Y376043D02*
Y381043D01*
X326132Y459449D02*
X329085D01*
X327608Y457972D02*
Y460925D01*
X326132Y449606D02*
X329085D01*
X327608Y448130D02*
Y451083D01*
X351649Y459449D02*
X354601D01*
X353125Y457972D02*
Y460925D01*
X351649Y449606D02*
X354601D01*
X353125Y448130D02*
Y451083D01*
X275098Y459449D02*
X278051D01*
X276575Y457972D02*
Y460925D01*
X275098Y449606D02*
X278051D01*
X276575Y448130D02*
Y451083D01*
X300615Y459449D02*
X303568D01*
X302092Y457972D02*
Y460925D01*
X300615Y449606D02*
X303568D01*
X302092Y448130D02*
Y451083D01*
X541415Y345669D02*
X544215D01*
X542815Y344269D02*
Y347069D01*
X430982Y348628D02*
X433782D01*
X432382Y347228D02*
Y350028D01*
X287478Y345472D02*
X290278D01*
X288878Y344072D02*
Y346872D01*
X247321Y357874D02*
X250120D01*
X248721Y356474D02*
Y359274D01*
X292891Y436811D02*
X295691D01*
X294291Y435411D02*
Y438211D01*
X210411Y353937D02*
X213211D01*
X211811Y352537D02*
Y355337D01*
X343580Y402165D02*
X346380D01*
X344980Y400765D02*
Y403565D01*
X330391Y433957D02*
X333191D01*
X331791Y432557D02*
Y435357D01*
X549978Y362500D02*
X552778D01*
X551378Y361100D02*
Y363900D01*
X339643Y364272D02*
X342443D01*
X341043Y362872D02*
Y365672D01*
X409033Y348819D02*
X411833D01*
X410433Y347419D02*
Y350219D01*
X409131Y367618D02*
X411932D01*
X410532Y366218D02*
Y369018D01*
X468187Y346752D02*
X470987D01*
X469587Y345352D02*
Y348152D01*
X262773Y360039D02*
X265573D01*
X264173Y358639D02*
Y361439D01*
X260620Y346449D02*
X263420D01*
X262020Y345049D02*
Y347849D01*
X287234Y354329D02*
X290034D01*
X288634Y352929D02*
Y355729D01*
X298038Y418771D02*
X300837D01*
X299437Y417371D02*
Y420171D01*
X426356Y364075D02*
X429156D01*
X427756Y362675D02*
Y365475D01*
M02*
