G04*
G04 #@! TF.GenerationSoftware,Altium Limited,Altium Designer,25.3.3 (18)*
G04*
G04 Layer_Color=16711935*
%FSLAX25Y25*%
%MOIN*%
G70*
G04*
G04 #@! TF.SameCoordinates,A146D230-DAC8-4C6A-9BAB-5E0106107E33*
G04*
G04*
G04 #@! TF.FilePolarity,Negative*
G04*
G01*
G75*
%ADD24R,0.05131X0.05131*%
%ADD29R,0.05131X0.05131*%
%ADD30C,0.07000*%
%ADD31C,0.05131*%
%ADD32C,0.05900*%
%ADD33R,0.04934X0.04934*%
%ADD34C,0.04934*%
%ADD35C,0.07296*%
%ADD36R,0.07296X0.07296*%
%ADD37C,0.05200*%
%ADD38R,0.05200X0.05200*%
%ADD39R,0.06737X0.06737*%
%ADD40C,0.06737*%
%ADD41C,0.06115*%
%ADD42R,0.05200X0.05200*%
%ADD43C,0.05800*%
D24*
X491831Y439272D02*
D03*
X422835Y446555D02*
D03*
X577539Y445890D02*
D03*
X602953Y436024D02*
D03*
X422195Y470866D02*
D03*
X378642Y449606D02*
D03*
X491831Y461319D02*
D03*
X327608Y449606D02*
D03*
X353125D02*
D03*
X276575D02*
D03*
X302092D02*
D03*
D29*
X585532Y469291D02*
D03*
D30*
X431298Y378543D02*
D03*
Y388937D02*
D03*
Y399331D02*
D03*
X456664D02*
D03*
Y388937D02*
D03*
Y378543D02*
D03*
X482029Y399331D02*
D03*
Y388937D02*
D03*
Y378543D02*
D03*
X198172D02*
D03*
Y388937D02*
D03*
Y399331D02*
D03*
X248903Y378543D02*
D03*
Y388937D02*
D03*
Y399331D02*
D03*
X147441Y378543D02*
D03*
Y388937D02*
D03*
Y399331D02*
D03*
X172807D02*
D03*
Y388937D02*
D03*
Y378543D02*
D03*
X223538Y399331D02*
D03*
Y388937D02*
D03*
Y378543D02*
D03*
X299634D02*
D03*
Y388937D02*
D03*
Y399331D02*
D03*
X325000Y378543D02*
D03*
Y388937D02*
D03*
Y399331D02*
D03*
X274269D02*
D03*
Y388937D02*
D03*
Y378543D02*
D03*
X583491D02*
D03*
Y388937D02*
D03*
Y399331D02*
D03*
X507395Y378543D02*
D03*
Y388937D02*
D03*
Y399331D02*
D03*
X532760D02*
D03*
Y388937D02*
D03*
Y378543D02*
D03*
X608857D02*
D03*
Y388937D02*
D03*
Y399331D02*
D03*
X558126D02*
D03*
Y388937D02*
D03*
Y378543D02*
D03*
D31*
X491831Y429429D02*
D03*
X422835Y456398D02*
D03*
X595374Y469291D02*
D03*
X577539Y436047D02*
D03*
X602953Y445866D02*
D03*
X422195Y480709D02*
D03*
X378642Y459449D02*
D03*
X491831Y471161D02*
D03*
X327608Y459449D02*
D03*
X353125D02*
D03*
X276575D02*
D03*
X302092D02*
D03*
D32*
X492039Y349500D02*
D03*
X512039D02*
D03*
X522039D02*
D03*
X502039D02*
D03*
X622000Y439500D02*
D03*
Y459500D02*
D03*
Y449500D02*
D03*
Y469500D02*
D03*
X137000Y449500D02*
D03*
Y469500D02*
D03*
Y459500D02*
D03*
Y439500D02*
D03*
D33*
X150295Y478445D02*
D03*
D34*
X155295D02*
D03*
X160295D02*
D03*
D35*
X391772Y412573D02*
D03*
Y402573D02*
D03*
Y392573D02*
D03*
Y352573D02*
D03*
Y362573D02*
D03*
Y372573D02*
D03*
Y382573D02*
D03*
X361772Y412573D02*
D03*
Y402573D02*
D03*
Y392573D02*
D03*
Y362573D02*
D03*
Y372573D02*
D03*
Y382573D02*
D03*
D36*
Y352573D02*
D03*
D37*
X220916Y455574D02*
D03*
X240409D02*
D03*
X220916Y476062D02*
D03*
X381619Y429528D02*
D03*
X370350D02*
D03*
X348917D02*
D03*
X186177Y448011D02*
D03*
X240409Y476062D02*
D03*
X403051Y429528D02*
D03*
D38*
X220916Y445731D02*
D03*
X240409D02*
D03*
X220916Y466219D02*
D03*
X240409D02*
D03*
D39*
X527618Y427421D02*
D03*
D40*
X537618D02*
D03*
X547618D02*
D03*
X557618D02*
D03*
Y457421D02*
D03*
X547618D02*
D03*
X537618D02*
D03*
X527618D02*
D03*
D41*
X160236Y426870D02*
D03*
Y462303D02*
D03*
X150394Y426870D02*
D03*
Y462303D02*
D03*
D42*
X391461Y429528D02*
D03*
X360507D02*
D03*
X339075D02*
D03*
X176335Y448011D02*
D03*
X412894Y429528D02*
D03*
D43*
X250886Y355906D02*
D03*
X231102Y343996D02*
D03*
X212500Y351358D02*
D03*
X288681Y344783D02*
D03*
X288583Y352362D02*
D03*
X263976Y359941D02*
D03*
X344980Y402165D02*
D03*
X300295Y421654D02*
D03*
X542815Y345669D02*
D03*
X432382Y348628D02*
D03*
X294291Y436811D02*
D03*
X331791Y433957D02*
D03*
X551378Y362500D02*
D03*
X341043Y364272D02*
D03*
X410433Y348819D02*
D03*
X410532Y367618D02*
D03*
X469587Y346752D02*
D03*
X427756Y364075D02*
D03*
M02*
