G04*
G04 #@! TF.GenerationSoftware,Altium Limited,Altium Designer,25.3.3 (18)*
G04*
G04 Layer_Color=65535*
%FSLAX25Y25*%
%MOIN*%
G70*
G04*
G04 #@! TF.SameCoordinates,A146D230-DAC8-4C6A-9BAB-5E0106107E33*
G04*
G04*
G04 #@! TF.FilePolarity,Positive*
G04*
G01*
G75*
%ADD10C,0.00600*%
%ADD11C,0.00394*%
%ADD12C,0.00500*%
%ADD13C,0.00787*%
%ADD14C,0.02000*%
%ADD15C,0.00984*%
%ADD16C,0.00800*%
%ADD17C,0.00591*%
%ADD18C,0.01000*%
%ADD19C,0.00606*%
%ADD20R,0.07284X0.03866*%
D10*
X431798Y360737D02*
G03*
X431798Y360737I-500J0D01*
G01*
X457163D02*
G03*
X457163Y360737I-500J0D01*
G01*
X482529D02*
G03*
X482529Y360737I-500J0D01*
G01*
X198672D02*
G03*
X198672Y360737I-500J0D01*
G01*
X249403D02*
G03*
X249403Y360737I-500J0D01*
G01*
X147941D02*
G03*
X147941Y360737I-500J0D01*
G01*
X173307D02*
G03*
X173307Y360737I-500J0D01*
G01*
X224038D02*
G03*
X224038Y360737I-500J0D01*
G01*
X300134D02*
G03*
X300134Y360737I-500J0D01*
G01*
X325500D02*
G03*
X325500Y360737I-500J0D01*
G01*
X274769D02*
G03*
X274769Y360737I-500J0D01*
G01*
X583991D02*
G03*
X583991Y360737I-500J0D01*
G01*
X507895D02*
G03*
X507895Y360737I-500J0D01*
G01*
X533260D02*
G03*
X533260Y360737I-500J0D01*
G01*
X609357D02*
G03*
X609357Y360737I-500J0D01*
G01*
X558626D02*
G03*
X558626Y360737I-500J0D01*
G01*
X426648Y400561D02*
Y409637D01*
Y368237D02*
Y377313D01*
X440948Y367737D02*
Y410137D01*
X421648D02*
X440948D01*
X421648Y367737D02*
Y410137D01*
Y367737D02*
X440948D01*
X426648Y379774D02*
Y387707D01*
Y390167D02*
Y398100D01*
X452013Y390167D02*
Y398100D01*
Y379774D02*
Y387707D01*
X447014Y367737D02*
X466314D01*
X447014D02*
Y410137D01*
X466314D01*
Y367737D02*
Y410137D01*
X452013Y368237D02*
Y377313D01*
Y400561D02*
Y409637D01*
X486539Y344000D02*
Y355000D01*
X527539D01*
Y344000D02*
Y355000D01*
X486539Y344000D02*
X527539D01*
X616500Y434000D02*
Y475000D01*
Y434000D02*
X627500D01*
Y475000D01*
X616500D02*
X627500D01*
X131500D02*
X142500D01*
Y434000D02*
Y475000D01*
X131500Y434000D02*
X142500D01*
X131500D02*
Y475000D01*
X477379Y390167D02*
Y398100D01*
Y379774D02*
Y387707D01*
X472379Y367737D02*
X491679D01*
X472379D02*
Y410137D01*
X491679D01*
Y367737D02*
Y410137D01*
X477379Y368237D02*
Y377313D01*
Y400561D02*
Y409637D01*
X193522Y400561D02*
Y409637D01*
Y368237D02*
Y377313D01*
X207822Y367737D02*
Y410137D01*
X188522D02*
X207822D01*
X188522Y367737D02*
Y410137D01*
Y367737D02*
X207822D01*
X193522Y379774D02*
Y387707D01*
Y390167D02*
Y398100D01*
X244253Y400561D02*
Y409637D01*
Y368237D02*
Y377313D01*
X258553Y367737D02*
Y410137D01*
X239253D02*
X258553D01*
X239253Y367737D02*
Y410137D01*
Y367737D02*
X258553D01*
X244253Y379774D02*
Y387707D01*
Y390167D02*
Y398100D01*
X142791Y400561D02*
Y409637D01*
Y368237D02*
Y377313D01*
X157091Y367737D02*
Y410137D01*
X137791D02*
X157091D01*
X137791Y367737D02*
Y410137D01*
Y367737D02*
X157091D01*
X142791Y379774D02*
Y387707D01*
Y390167D02*
Y398100D01*
X168157Y390167D02*
Y398100D01*
Y379774D02*
Y387707D01*
X163156Y367737D02*
X182457D01*
X163156D02*
Y410137D01*
X182457D01*
Y367737D02*
Y410137D01*
X168157Y368237D02*
Y377313D01*
Y400561D02*
Y409637D01*
X218888Y390167D02*
Y398100D01*
Y379774D02*
Y387707D01*
X213888Y367737D02*
X233188D01*
X213888D02*
Y410137D01*
X233188D01*
Y367737D02*
Y410137D01*
X218888Y368237D02*
Y377313D01*
Y400561D02*
Y409637D01*
X294984Y400561D02*
Y409637D01*
Y368237D02*
Y377313D01*
X309284Y367737D02*
Y410137D01*
X289984D02*
X309284D01*
X289984Y367737D02*
Y410137D01*
Y367737D02*
X309284D01*
X294984Y379774D02*
Y387707D01*
Y390167D02*
Y398100D01*
X320350Y400561D02*
Y409637D01*
Y368237D02*
Y377313D01*
X334650Y367737D02*
Y410137D01*
X315350D02*
X334650D01*
X315350Y367737D02*
Y410137D01*
Y367737D02*
X334650D01*
X320350Y379774D02*
Y387707D01*
Y390167D02*
Y398100D01*
X269619Y390167D02*
Y398100D01*
Y379774D02*
Y387707D01*
X264619Y367737D02*
X283919D01*
X264619D02*
Y410137D01*
X283919D01*
Y367737D02*
Y410137D01*
X269619Y368237D02*
Y377313D01*
Y400561D02*
Y409637D01*
X224824Y443052D02*
X225966D01*
X215866D02*
X217008D01*
X215866Y458252D02*
X218068D01*
X225966Y443052D02*
Y458252D01*
X215866Y443052D02*
Y458252D01*
X223764D02*
X225966D01*
X244317Y443052D02*
X245460D01*
X235360D02*
X236502D01*
X235360Y458252D02*
X237561D01*
X245460Y443052D02*
Y458252D01*
X235360Y443052D02*
Y458252D01*
X243258D02*
X245460D01*
X224824Y463541D02*
X225966D01*
X215866D02*
X217008D01*
X215866Y478741D02*
X218068D01*
X225966Y463541D02*
Y478741D01*
X215866Y463541D02*
Y478741D01*
X223764D02*
X225966D01*
X378940Y432376D02*
Y434578D01*
Y424478D02*
X394140D01*
X378940Y434578D02*
X394140D01*
X378940Y424478D02*
Y426679D01*
X394140Y424478D02*
Y425620D01*
Y433435D02*
Y434578D01*
X373028Y424478D02*
Y426679D01*
X357828Y434578D02*
X373028D01*
X357828Y424478D02*
X373028D01*
Y432376D02*
Y434578D01*
X357828Y433435D02*
Y434578D01*
Y424478D02*
Y425620D01*
X336396Y424478D02*
Y425620D01*
Y433435D02*
Y434578D01*
X351596Y432376D02*
Y434578D01*
X336396Y424478D02*
X351596D01*
X336396Y434578D02*
X351596D01*
Y424478D02*
Y426679D01*
X578841Y400561D02*
Y409637D01*
Y368237D02*
Y377313D01*
X593141Y367737D02*
Y410137D01*
X573841D02*
X593141D01*
X573841Y367737D02*
Y410137D01*
Y367737D02*
X593141D01*
X578841Y379774D02*
Y387707D01*
Y390167D02*
Y398100D01*
X502745Y400561D02*
Y409637D01*
Y368237D02*
Y377313D01*
X517045Y367737D02*
Y410137D01*
X497745D02*
X517045D01*
X497745Y367737D02*
Y410137D01*
Y367737D02*
X517045D01*
X502745Y379774D02*
Y387707D01*
Y390167D02*
Y398100D01*
X188856Y442961D02*
Y445162D01*
X173656Y453061D02*
X188856D01*
X173656Y442961D02*
X188856D01*
Y450859D02*
Y453061D01*
X173656Y451918D02*
Y453061D01*
Y442961D02*
Y444103D01*
X243258Y478741D02*
X245460D01*
X235360Y463541D02*
Y478741D01*
X245460Y463541D02*
Y478741D01*
X235360D02*
X237561D01*
X235360Y463541D02*
X236502D01*
X244317D02*
X245460D01*
X400372Y432376D02*
Y434578D01*
Y424478D02*
X415572D01*
X400372Y434578D02*
X415572D01*
X400372Y424478D02*
Y426679D01*
X415572Y424478D02*
Y425620D01*
Y433435D02*
Y434578D01*
X528110Y390167D02*
Y398100D01*
Y379774D02*
Y387707D01*
X523110Y367737D02*
X542410D01*
X523110D02*
Y410137D01*
X542410D01*
Y367737D02*
Y410137D01*
X528110Y368237D02*
Y377313D01*
Y400561D02*
Y409637D01*
X604207Y400561D02*
Y409637D01*
Y368237D02*
Y377313D01*
X618507Y367737D02*
Y410137D01*
X599207D02*
X618507D01*
X599207Y367737D02*
Y410137D01*
Y367737D02*
X618507D01*
X604207Y379774D02*
Y387707D01*
Y390167D02*
Y398100D01*
X553476Y390167D02*
Y398100D01*
Y379774D02*
Y387707D01*
X548476Y367737D02*
X567776D01*
X548476D02*
Y410137D01*
X567776D01*
Y367737D02*
Y410137D01*
X553476Y368237D02*
Y377313D01*
Y400561D02*
Y409637D01*
D11*
X459791Y362803D02*
G03*
X459791Y362803I-591J0D01*
G01*
X176587Y347215D02*
G03*
X176587Y347215I-591J0D01*
G01*
X336260Y363413D02*
G03*
X336260Y363413I-591J0D01*
G01*
X461201Y345803D02*
Y364303D01*
X439201D02*
X461201D01*
X439201Y345803D02*
Y364303D01*
Y345803D02*
X461201D01*
X173996Y364215D02*
X195996D01*
Y345715D02*
Y364215D01*
X173996Y345715D02*
X195996D01*
X173996D02*
Y364215D01*
X315669Y346413D02*
X337669D01*
X315669D02*
Y364913D01*
X337669D01*
Y346413D02*
Y364913D01*
D12*
X501673Y434350D02*
G03*
X501673Y434350I-9843J0D01*
G01*
X432677Y451476D02*
G03*
X432677Y451476I-9843J0D01*
G01*
X600295Y469291D02*
G03*
X600295Y469291I-9843J0D01*
G01*
X587381Y440969D02*
G03*
X587381Y440969I-9843J0D01*
G01*
X612795Y440945D02*
G03*
X612795Y440945I-9843J0D01*
G01*
X432037Y475787D02*
G03*
X432037Y475787I-9843J0D01*
G01*
X388484Y454528D02*
G03*
X388484Y454528I-9843J0D01*
G01*
X501673Y466240D02*
G03*
X501673Y466240I-9843J0D01*
G01*
X337451Y454528D02*
G03*
X337451Y454528I-9843J0D01*
G01*
X362967D02*
G03*
X362967Y454528I-9843J0D01*
G01*
X286417D02*
G03*
X286417Y454528I-9843J0D01*
G01*
X311934D02*
G03*
X311934Y454528I-9843J0D01*
G01*
X208268Y430315D02*
X217618Y439665D01*
X208268Y430315D02*
X220965Y417618D01*
X217618Y439665D02*
X253937D01*
X175197Y430315D02*
X208268D01*
X162894Y418012D02*
X175197Y430315D01*
X220965Y417618D02*
X342520D01*
X253937Y439665D02*
X256496Y442224D01*
Y489500D01*
X419980Y417028D02*
X429429D01*
X342520Y417618D02*
X345669Y420768D01*
X352165D01*
X429429Y417028D02*
X441043D01*
X631744D01*
X437224Y489401D02*
X437303Y417028D01*
X352165Y420768D02*
X416240D01*
X419980Y417028D01*
X351772Y347573D02*
X401772D01*
Y417573D01*
X351772D02*
X401772D01*
X351772Y347573D02*
Y417573D01*
X127000Y418012D02*
X162894D01*
X522618Y422736D02*
Y462106D01*
X562618D01*
Y422736D02*
Y462106D01*
X522618Y422736D02*
X562618D01*
D13*
X492224Y447146D02*
G03*
X492224Y447146I-394J0D01*
G01*
X423228Y438681D02*
G03*
X423228Y438681I-394J0D01*
G01*
X162909Y473188D02*
G03*
X147682Y473187I-7614J5257D01*
G01*
X578051Y469291D02*
G03*
X578051Y469291I-394J0D01*
G01*
X349213Y352573D02*
G03*
X349213Y352573I-394J0D01*
G01*
X577932Y453764D02*
G03*
X577932Y453764I-394J0D01*
G01*
X603346Y428150D02*
G03*
X603346Y428150I-394J0D01*
G01*
X422589Y462992D02*
G03*
X422589Y462992I-394J0D01*
G01*
X379035Y441732D02*
G03*
X379035Y441732I-394J0D01*
G01*
X492224Y453445D02*
G03*
X492224Y453445I-394J0D01*
G01*
X328002Y441732D02*
G03*
X328002Y441732I-394J0D01*
G01*
X353519D02*
G03*
X353519Y441732I-394J0D01*
G01*
X276969D02*
G03*
X276969Y441732I-394J0D01*
G01*
X302485D02*
G03*
X302485Y441732I-394J0D01*
G01*
X147682Y473189D02*
X162908D01*
X518898Y442292D02*
Y450214D01*
X512205Y442292D02*
Y450214D01*
X338484Y380882D02*
Y388803D01*
X345177Y380882D02*
Y388803D01*
X413878Y354110D02*
Y362032D01*
X407185Y354110D02*
Y362032D01*
X551772Y476772D02*
X552165D01*
X551772Y473228D02*
X552165D01*
X138257Y353280D02*
X146179D01*
X138257Y346587D02*
X146179D01*
X153235Y353280D02*
X161156D01*
X153235Y346587D02*
X161156D01*
X268341Y354329D02*
X276263D01*
X268341Y347636D02*
X276263D01*
X220198D02*
X228119D01*
X220198Y354329D02*
X228119D01*
X244269D02*
X252191D01*
X244269Y347636D02*
X252191D01*
X398598Y449780D02*
X406520D01*
X398598Y443087D02*
X406520D01*
X289140Y420244D02*
Y428166D01*
X295833Y420244D02*
Y428166D01*
X310909Y420244D02*
Y428166D01*
X304216Y420244D02*
Y428166D01*
X281348Y422539D02*
Y428445D01*
X274065Y422539D02*
Y428445D01*
X258990Y420244D02*
Y428166D01*
X265682Y420244D02*
Y428166D01*
X251198Y422539D02*
Y428445D01*
X243914Y422539D02*
Y428445D01*
X319291Y420244D02*
Y428166D01*
X325984Y420244D02*
Y428166D01*
X236473Y422539D02*
Y428445D01*
X229189Y422539D02*
Y428445D01*
X398598Y476181D02*
X406520D01*
X398598Y469488D02*
X406520D01*
X182382Y418283D02*
Y426205D01*
X189075Y418283D02*
Y426205D01*
X618449Y351754D02*
Y359676D01*
X611756Y351754D02*
Y359676D01*
X600689Y351754D02*
Y359676D01*
X593996Y351754D02*
Y359676D01*
X582929Y351754D02*
Y359676D01*
X576236Y351754D02*
Y359676D01*
X565169Y351938D02*
Y359860D01*
X558476Y351938D02*
Y359860D01*
X472736Y350971D02*
Y358893D01*
X466043Y350971D02*
Y358893D01*
X138067Y364469D02*
X145988D01*
X138067Y357776D02*
X145988D01*
X483268Y350971D02*
Y358893D01*
X476575Y350971D02*
Y358893D01*
X156595Y436221D02*
Y452953D01*
Y436221D02*
X163878D01*
X156595Y452953D02*
X163878D01*
Y436221D02*
Y452953D01*
X413287Y402658D02*
Y408563D01*
X406004Y402658D02*
Y408563D01*
X146752Y436221D02*
Y452953D01*
Y436221D02*
X154035D01*
X146752Y452953D02*
X154035D01*
Y436221D02*
Y452953D01*
X203543Y418283D02*
Y426205D01*
X196850Y418283D02*
Y426205D01*
X547410Y351754D02*
Y359676D01*
X540717Y351754D02*
Y359676D01*
X513484Y429921D02*
Y430315D01*
X517028Y429921D02*
Y430315D01*
X524773Y471949D02*
X532694D01*
X524773Y478642D02*
X532694D01*
X548228Y347275D02*
Y343339D01*
Y344651D01*
X550852Y347275D01*
X548884Y345307D01*
X550852Y343339D01*
X552820Y345963D02*
X554132D01*
X554788Y345307D01*
Y343339D01*
X552820D01*
X552164Y343995D01*
X552820Y344651D01*
X554788D01*
X556100Y345963D02*
Y343339D01*
Y344651D01*
X556756Y345307D01*
X557412Y345963D01*
X558068D01*
X562003Y343339D02*
X560691D01*
X560036Y343995D01*
Y345307D01*
X560691Y345963D01*
X562003D01*
X562659Y345307D01*
Y344651D01*
X560036D01*
X563971Y343339D02*
Y345963D01*
X565939D01*
X566595Y345307D01*
Y343339D01*
X568563Y342684D02*
X569219Y343339D01*
Y343995D01*
X568563D01*
Y343339D01*
X569219D01*
X568563Y342684D01*
X567907Y342028D01*
X575778Y343339D02*
Y347275D01*
X577746D01*
X578402Y346619D01*
Y345307D01*
X577746Y344651D01*
X575778D01*
X577090D02*
X578402Y343339D01*
X579714Y347275D02*
Y343339D01*
Y345307D01*
X580370Y345963D01*
X581682D01*
X582338Y345307D01*
Y343339D01*
X585618D02*
X584306D01*
X583650Y343995D01*
Y345307D01*
X584306Y345963D01*
X585618D01*
X586274Y345307D01*
Y344651D01*
X583650D01*
X588242Y345963D02*
X589554D01*
X590210Y345307D01*
Y343339D01*
X588242D01*
X587586Y343995D01*
X588242Y344651D01*
X590210D01*
X596113Y345963D02*
X597425D01*
X598081Y345307D01*
Y343339D01*
X596113D01*
X595457Y343995D01*
X596113Y344651D01*
X598081D01*
X599393Y343339D02*
Y345963D01*
X601361D01*
X602017Y345307D01*
Y343339D01*
X605953Y347275D02*
Y343339D01*
X603985D01*
X603329Y343995D01*
Y345307D01*
X603985Y345963D01*
X605953D01*
X611200Y343339D02*
Y347275D01*
X612512Y345963D01*
X613824Y347275D01*
Y343339D01*
X615792Y345963D02*
X617104D01*
X617760Y345307D01*
Y343339D01*
X615792D01*
X615136Y343995D01*
X615792Y344651D01*
X617760D01*
X619072Y347275D02*
Y343339D01*
Y345307D01*
X619728Y345963D01*
X621039D01*
X621696Y345307D01*
Y343339D01*
X623007D02*
X624319D01*
X623663D01*
Y345963D01*
X623007D01*
X626287D02*
Y343339D01*
Y344651D01*
X626943Y345307D01*
X627599Y345963D01*
X628255D01*
D14*
X531539Y349500D02*
G03*
X531539Y349500I-1500J0D01*
G01*
X623500Y431500D02*
G03*
X623500Y431500I-1500J0D01*
G01*
X138500Y431500D02*
G03*
X138500Y431500I-1500J0D01*
G01*
D15*
X144173Y478445D02*
G03*
X144173Y478445I-492J0D01*
G01*
D16*
X527461Y419587D02*
G03*
X527461Y419587I-787J0D01*
G01*
D17*
X185039Y476968D02*
X185059D01*
X177342D02*
X177362D01*
X177342Y468307D02*
Y476968D01*
X185039Y468307D02*
X185059D01*
X177342D02*
X177362D01*
X185059D02*
Y476968D01*
D18*
X502476Y487940D02*
Y483414D01*
X505494D01*
X507757D02*
X509266D01*
X510020Y484169D01*
Y485677D01*
X509266Y486432D01*
X507757D01*
X507002Y485677D01*
Y484169D01*
X507757Y483414D01*
X511529Y486432D02*
Y484169D01*
X512283Y483414D01*
X513037Y484169D01*
X513792Y483414D01*
X514546Y484169D01*
Y486432D01*
X516055Y485677D02*
X519072D01*
X520581Y481906D02*
Y486432D01*
X522844D01*
X523598Y485677D01*
Y484169D01*
X522844Y483414D01*
X520581D01*
X525861Y486432D02*
X527370D01*
X528124Y485677D01*
Y483414D01*
X525861D01*
X525107Y484169D01*
X525861Y484923D01*
X528124D01*
X529633Y483414D02*
X531896D01*
X532650Y484169D01*
X531896Y484923D01*
X530387D01*
X529633Y485677D01*
X530387Y486432D01*
X532650D01*
X534159Y483414D02*
X536422D01*
X537177Y484169D01*
X536422Y484923D01*
X534913D01*
X534159Y485677D01*
X534913Y486432D01*
X537177D01*
X546229Y483414D02*
X545474Y484169D01*
X544720Y483414D01*
X543966D01*
X543211Y484169D01*
Y484923D01*
X543966Y485677D01*
X543211Y486432D01*
Y487186D01*
X543966Y487940D01*
X544720D01*
X545474Y487186D01*
Y486432D01*
X544720Y485677D01*
X545474Y484923D01*
Y484169D01*
X546229Y485677D02*
X545474Y484923D01*
X543966Y485677D02*
X544720D01*
X552263Y483414D02*
Y486432D01*
X553772Y487940D01*
X555281Y486432D01*
Y483414D01*
Y485677D01*
X552263D01*
X556790Y483414D02*
Y486432D01*
X557544D01*
X558298Y485677D01*
Y483414D01*
Y485677D01*
X559053Y486432D01*
X559807Y485677D01*
Y483414D01*
X561316Y481906D02*
Y486432D01*
X563579D01*
X564333Y485677D01*
Y484169D01*
X563579Y483414D01*
X561316D01*
X565842D02*
X567350D01*
X566596D01*
Y487940D01*
X565842D01*
X569614Y483414D02*
X571122D01*
X570368D01*
Y486432D01*
X569614D01*
X574140Y483414D02*
Y487186D01*
Y485677D01*
X573385D01*
X574894D01*
X574140D01*
Y487186D01*
X574894Y487940D01*
X577157Y483414D02*
X578666D01*
X577911D01*
Y486432D01*
X577157D01*
X583192Y483414D02*
X581683D01*
X580929Y484169D01*
Y485677D01*
X581683Y486432D01*
X583192D01*
X583946Y485677D01*
Y484923D01*
X580929D01*
X585455Y486432D02*
Y483414D01*
Y484923D01*
X586209Y485677D01*
X586964Y486432D01*
X587718D01*
X173441Y486956D02*
Y482430D01*
X176458D01*
X177967D02*
X179476D01*
X178721D01*
Y485447D01*
X177967D01*
X181739Y482430D02*
Y485447D01*
X182493D01*
X183247Y484693D01*
Y482430D01*
Y484693D01*
X184002Y485447D01*
X184756Y484693D01*
Y482430D01*
X186265D02*
X187774D01*
X187019D01*
Y485447D01*
X186265D01*
X190791Y486202D02*
Y485447D01*
X190037D01*
X191545D01*
X190791D01*
Y483184D01*
X191545Y482430D01*
X196071D02*
X194563D01*
X193808Y483184D01*
Y484693D01*
X194563Y485447D01*
X196071D01*
X196826Y484693D01*
Y483939D01*
X193808D01*
X198335Y485447D02*
Y482430D01*
Y483939D01*
X199089Y484693D01*
X199843Y485447D01*
X200598D01*
X210404Y482430D02*
X209650Y483184D01*
X208895Y482430D01*
X208141D01*
X207387Y483184D01*
Y483939D01*
X208141Y484693D01*
X207387Y485447D01*
Y486202D01*
X208141Y486956D01*
X208895D01*
X209650Y486202D01*
Y485447D01*
X208895Y484693D01*
X209650Y483939D01*
Y483184D01*
X210404Y484693D02*
X209650Y483939D01*
X208141Y484693D02*
X208895D01*
X216439Y486956D02*
Y482430D01*
X218702D01*
X219456Y483184D01*
Y483939D01*
X218702Y484693D01*
X216439D01*
X218702D01*
X219456Y485447D01*
Y486202D01*
X218702Y486956D01*
X216439D01*
X221719Y485447D02*
X223228D01*
X223982Y484693D01*
Y482430D01*
X221719D01*
X220965Y483184D01*
X221719Y483939D01*
X223982D01*
X225491Y482430D02*
Y485447D01*
X227754D01*
X228508Y484693D01*
Y482430D01*
X233035Y486956D02*
Y482430D01*
X230771D01*
X230017Y483184D01*
Y484693D01*
X230771Y485447D01*
X233035D01*
X234543Y480921D02*
Y485447D01*
X236806D01*
X237561Y484693D01*
Y483184D01*
X236806Y482430D01*
X234543D01*
X239824Y485447D02*
X241332D01*
X242087Y484693D01*
Y482430D01*
X239824D01*
X239069Y483184D01*
X239824Y483939D01*
X242087D01*
X243596Y482430D02*
X245859D01*
X246613Y483184D01*
X245859Y483939D01*
X244350D01*
X243596Y484693D01*
X244350Y485447D01*
X246613D01*
X248122Y482430D02*
X250385D01*
X251139Y483184D01*
X250385Y483939D01*
X248876D01*
X248122Y484693D01*
X248876Y485447D01*
X251139D01*
X303658Y487350D02*
Y482824D01*
X305921D01*
X306675Y483578D01*
Y486595D01*
X305921Y487350D01*
X303658D01*
X308184Y482824D02*
X309692D01*
X308938D01*
Y485841D01*
X308184D01*
X312710Y482824D02*
Y486595D01*
Y485087D01*
X311955D01*
X313464D01*
X312710D01*
Y486595D01*
X313464Y487350D01*
X316481Y482824D02*
Y486595D01*
Y485087D01*
X315727D01*
X317236D01*
X316481D01*
Y486595D01*
X317236Y487350D01*
X321762Y482824D02*
X320253D01*
X319499Y483578D01*
Y485087D01*
X320253Y485841D01*
X321762D01*
X322516Y485087D01*
Y484332D01*
X319499D01*
X324025Y485841D02*
Y482824D01*
Y484332D01*
X324779Y485087D01*
X325534Y485841D01*
X326288D01*
X330814Y482824D02*
X329305D01*
X328551Y483578D01*
Y485087D01*
X329305Y485841D01*
X330814D01*
X331568Y485087D01*
Y484332D01*
X328551D01*
X333077Y482824D02*
Y485841D01*
X335340D01*
X336094Y485087D01*
Y482824D01*
X338358Y486595D02*
Y485841D01*
X337603D01*
X339112D01*
X338358D01*
Y483578D01*
X339112Y482824D01*
X341375D02*
X342884D01*
X342129D01*
Y485841D01*
X341375D01*
X345901D02*
X347410D01*
X348164Y485087D01*
Y482824D01*
X345901D01*
X345147Y483578D01*
X345901Y484332D01*
X348164D01*
X349673Y482824D02*
X351182D01*
X350427D01*
Y487350D01*
X349673D01*
X360234D02*
X358725D01*
X357971Y486595D01*
Y483578D01*
X358725Y482824D01*
X360234D01*
X360988Y483578D01*
Y486595D01*
X360234Y487350D01*
X362497Y481315D02*
Y485841D01*
X364760D01*
X365514Y485087D01*
Y483578D01*
X364760Y482824D01*
X362497D01*
X367777Y485841D02*
X369286D01*
X370040Y485087D01*
Y482824D01*
X367777D01*
X367023Y483578D01*
X367777Y484332D01*
X370040D01*
X371549Y482824D02*
Y485841D01*
X372303D01*
X373058Y485087D01*
Y482824D01*
Y485087D01*
X373812Y485841D01*
X374566Y485087D01*
Y482824D01*
X376075Y481315D02*
Y485841D01*
X378338D01*
X379093Y485087D01*
Y483578D01*
X378338Y482824D01*
X376075D01*
X348013Y342502D02*
Y345520D01*
X347259Y346274D01*
X345750D01*
X344996Y345520D01*
Y342502D01*
X345750Y341748D01*
X347259D01*
X346505Y343257D02*
X348013Y341748D01*
X347259D02*
X348013Y342502D01*
X349522Y344765D02*
Y342502D01*
X350276Y341748D01*
X352540D01*
Y344765D01*
X354803D02*
X356311D01*
X357066Y344011D01*
Y341748D01*
X354803D01*
X354048Y342502D01*
X354803Y343257D01*
X357066D01*
X361592Y346274D02*
Y341748D01*
X359329D01*
X358574Y342502D01*
Y344011D01*
X359329Y344765D01*
X361592D01*
X363101D02*
Y341748D01*
Y343257D01*
X363855Y344011D01*
X364609Y344765D01*
X365364D01*
X368381D02*
X369890D01*
X370644Y344011D01*
Y341748D01*
X368381D01*
X367627Y342502D01*
X368381Y343257D01*
X370644D01*
X372907Y345520D02*
Y344765D01*
X372153D01*
X373661D01*
X372907D01*
Y342502D01*
X373661Y341748D01*
X375924Y344765D02*
Y342502D01*
X376679Y341748D01*
X378942D01*
Y344765D01*
X380451D02*
Y341748D01*
Y343257D01*
X381205Y344011D01*
X381959Y344765D01*
X382714D01*
X387240Y341748D02*
X385731D01*
X384977Y342502D01*
Y344011D01*
X385731Y344765D01*
X387240D01*
X387994Y344011D01*
Y343257D01*
X384977D01*
X394029Y341748D02*
Y346274D01*
X395537Y344765D01*
X397046Y346274D01*
Y341748D01*
X398555D02*
X400064D01*
X399309D01*
Y344765D01*
X398555D01*
X402327D02*
X405344Y341748D01*
X403835Y343257D01*
X405344Y344765D01*
X402327Y341748D01*
X409116D02*
X407607D01*
X406853Y342502D01*
Y344011D01*
X407607Y344765D01*
X409116D01*
X409870Y344011D01*
Y343257D01*
X406853D01*
X411379Y344765D02*
Y341748D01*
Y343257D01*
X412133Y344011D01*
X412888Y344765D01*
X413642D01*
D19*
X535320Y348239D02*
X534009D01*
X534664D01*
Y344960D01*
X534009Y344304D01*
X533353D01*
X532697Y344960D01*
X539256Y344304D02*
X536632D01*
X539256Y346928D01*
Y347584D01*
X538600Y348239D01*
X537288D01*
X536632Y347584D01*
X415585Y355808D02*
Y359743D01*
X417553D01*
X418209Y359087D01*
Y357776D01*
X417553Y357120D01*
X415585D01*
X416897D02*
X418209Y355808D01*
X419521D02*
X420832D01*
X420177D01*
Y359743D01*
X419521Y359087D01*
X171556Y470506D02*
X175491D01*
Y473130D01*
Y474442D02*
Y475754D01*
Y475098D01*
X171556D01*
X172212Y474442D01*
X403971Y383464D02*
Y380184D01*
X404627Y379528D01*
X405938D01*
X406595Y380184D01*
Y383464D01*
X407906Y379528D02*
X409218D01*
X408562D01*
Y383464D01*
X407906Y382808D01*
X137502Y341241D02*
Y345177D01*
X139470D01*
X140125Y344521D01*
Y343209D01*
X139470Y342553D01*
X137502D01*
X138813D02*
X140125Y341241D01*
X141437D02*
X142749D01*
X142093D01*
Y345177D01*
X141437Y344521D01*
X144717D02*
X145373Y345177D01*
X146685D01*
X147341Y344521D01*
Y343865D01*
X146685Y343209D01*
X146029D01*
X146685D01*
X147341Y342553D01*
Y341897D01*
X146685Y341241D01*
X145373D01*
X144717Y341897D01*
X564338Y461810D02*
Y458531D01*
X564994Y457875D01*
X566306D01*
X566962Y458531D01*
Y461810D01*
X570898Y457875D02*
X568274D01*
X570898Y460499D01*
Y461154D01*
X570242Y461810D01*
X568930D01*
X568274Y461154D01*
X498220Y411678D02*
Y415614D01*
X500188D01*
X500844Y414958D01*
Y413646D01*
X500188Y412990D01*
X498220D01*
X502156Y415614D02*
X504780D01*
Y414958D01*
X502156Y412334D01*
Y411678D01*
X197362Y358659D02*
X199986D01*
X198674D01*
Y354723D01*
X201298Y358003D02*
X201954Y358659D01*
X203266D01*
X203922Y358003D01*
Y357347D01*
X203266Y356691D01*
X202610D01*
X203266D01*
X203922Y356035D01*
Y355379D01*
X203266Y354723D01*
X201954D01*
X201298Y355379D01*
X219541Y355609D02*
Y359545D01*
X221509D01*
X222165Y358889D01*
Y357577D01*
X221509Y356921D01*
X219541D01*
X220853D02*
X222165Y355609D01*
X223477D02*
X224789D01*
X224133D01*
Y359545D01*
X223477Y358889D01*
X226757Y359545D02*
X229380D01*
Y358889D01*
X226757Y356265D01*
Y355609D01*
X243112Y342028D02*
Y345964D01*
X245080D01*
X245736Y345308D01*
Y343996D01*
X245080Y343340D01*
X243112D01*
X244424D02*
X245736Y342028D01*
X247048D02*
X248359D01*
X247704D01*
Y345964D01*
X247048Y345308D01*
X252951Y345964D02*
X251639Y345308D01*
X250327Y343996D01*
Y342684D01*
X250983Y342028D01*
X252295D01*
X252951Y342684D01*
Y343340D01*
X252295Y343996D01*
X250327D01*
X337206Y391044D02*
Y394980D01*
X339174D01*
X339830Y394324D01*
Y393012D01*
X339174Y392356D01*
X337206D01*
X338518D02*
X339830Y391044D01*
X341142D02*
X342454D01*
X341798D01*
Y394980D01*
X341142Y394324D01*
X347046Y394980D02*
X344422D01*
Y393012D01*
X345734Y393668D01*
X346390D01*
X347046Y393012D01*
Y391700D01*
X346390Y391044D01*
X345078D01*
X344422Y391700D01*
X267474Y356199D02*
Y360135D01*
X269442D01*
X270098Y359479D01*
Y358167D01*
X269442Y357511D01*
X267474D01*
X268786D02*
X270098Y356199D01*
X271410D02*
X272722D01*
X272066D01*
Y360135D01*
X271410Y359479D01*
X276657Y356199D02*
Y360135D01*
X274690Y358167D01*
X277313D01*
X153053Y341339D02*
Y345275D01*
X155021D01*
X155677Y344619D01*
Y343307D01*
X155021Y342651D01*
X153053D01*
X154365D02*
X155677Y341339D01*
X156989D02*
X158300D01*
X157644D01*
Y345275D01*
X156989Y344619D01*
X162892Y341339D02*
X160268D01*
X162892Y343963D01*
Y344619D01*
X162236Y345275D01*
X160924D01*
X160268Y344619D01*
X180117Y418466D02*
X176182D01*
Y420434D01*
X176838Y421090D01*
X178150D01*
X178806Y420434D01*
Y418466D01*
Y419778D02*
X180117Y421090D01*
Y422402D02*
Y423713D01*
Y423058D01*
X176182D01*
X176838Y422402D01*
X180117Y425681D02*
Y426993D01*
Y426337D01*
X176182D01*
X176838Y425681D01*
X149608Y358071D02*
Y362007D01*
X151576D01*
X152232Y361351D01*
Y360039D01*
X151576Y359383D01*
X149608D01*
X150920D02*
X152232Y358071D01*
X153544D02*
X154856D01*
X154200D01*
Y362007D01*
X153544Y361351D01*
X156823D02*
X157479Y362007D01*
X158791D01*
X159447Y361351D01*
Y358728D01*
X158791Y358071D01*
X157479D01*
X156823Y358728D01*
Y361351D01*
X163851Y412501D02*
Y416436D01*
X165819D01*
X166475Y415780D01*
Y414468D01*
X165819Y413813D01*
X163851D01*
X167787Y412501D02*
X169099D01*
X168443D01*
Y416436D01*
X167787Y415780D01*
X173691Y416436D02*
X172379Y415780D01*
X171067Y414468D01*
Y413157D01*
X171723Y412501D01*
X173035D01*
X173691Y413157D01*
Y413813D01*
X173035Y414468D01*
X171067D01*
X189315Y412501D02*
Y416436D01*
X191283D01*
X191939Y415780D01*
Y414468D01*
X191283Y413813D01*
X189315D01*
X193251Y412501D02*
X194563D01*
X193907D01*
Y416436D01*
X193251Y415780D01*
X199155Y416436D02*
X196531D01*
Y414468D01*
X197843Y415125D01*
X198499D01*
X199155Y414468D01*
Y413157D01*
X198499Y412501D01*
X197187D01*
X196531Y413157D01*
X214189Y412501D02*
Y416436D01*
X216157D01*
X216813Y415780D01*
Y414468D01*
X216157Y413813D01*
X214189D01*
X218125Y412501D02*
X219437D01*
X218780D01*
Y416436D01*
X218125Y415780D01*
X223372Y412501D02*
Y416436D01*
X221404Y414468D01*
X224028D01*
X265018Y412501D02*
Y416436D01*
X266986D01*
X267642Y415780D01*
Y414468D01*
X266986Y413813D01*
X265018D01*
X268954Y412501D02*
X270266D01*
X269610D01*
Y416436D01*
X268954Y415780D01*
X272234D02*
X272890Y416436D01*
X274202D01*
X274858Y415780D01*
Y415125D01*
X274202Y414468D01*
X273546D01*
X274202D01*
X274858Y413813D01*
Y413157D01*
X274202Y412501D01*
X272890D01*
X272234Y413157D01*
X315356Y412501D02*
Y416436D01*
X317324D01*
X317980Y415780D01*
Y414468D01*
X317324Y413813D01*
X315356D01*
X319292Y412501D02*
X320603D01*
X319948D01*
Y416436D01*
X319292Y415780D01*
X325195Y412501D02*
X322571D01*
X325195Y415125D01*
Y415780D01*
X324539Y416436D01*
X323227D01*
X322571Y415780D01*
X239029Y412501D02*
Y416436D01*
X240997D01*
X241653Y415780D01*
Y414468D01*
X240997Y413813D01*
X239029D01*
X242965Y412501D02*
X244277D01*
X243621D01*
Y416436D01*
X242965Y415780D01*
X246245Y412501D02*
X247557D01*
X246901D01*
Y416436D01*
X246245Y415780D01*
X290198Y412501D02*
Y416436D01*
X292166D01*
X292822Y415780D01*
Y414468D01*
X292166Y413813D01*
X290198D01*
X294133Y412501D02*
X295445D01*
X294790D01*
Y416436D01*
X294133Y415780D01*
X297413D02*
X298069Y416436D01*
X299381D01*
X300037Y415780D01*
Y413157D01*
X299381Y412501D01*
X298069D01*
X297413Y413157D01*
Y415780D01*
X138452Y412501D02*
Y416436D01*
X140420D01*
X141076Y415780D01*
Y414468D01*
X140420Y413813D01*
X138452D01*
X142388Y413157D02*
X143044Y412501D01*
X144356D01*
X145012Y413157D01*
Y415780D01*
X144356Y416436D01*
X143044D01*
X142388Y415780D01*
Y415125D01*
X143044Y414468D01*
X145012D01*
X349969Y476969D02*
Y480905D01*
X351937D01*
X352593Y480249D01*
Y478937D01*
X351937Y478281D01*
X349969D01*
X351281D02*
X352593Y476969D01*
X353905Y480249D02*
X354561Y480905D01*
X355873D01*
X356528Y480249D01*
Y479593D01*
X355873Y478937D01*
X355217D01*
X355873D01*
X356528Y478281D01*
Y477625D01*
X355873Y476969D01*
X354561D01*
X353905Y477625D01*
X357840Y480249D02*
X358496Y480905D01*
X359808D01*
X360464Y480249D01*
Y479593D01*
X359808Y478937D01*
X359152D01*
X359808D01*
X360464Y478281D01*
Y477625D01*
X359808Y476969D01*
X358496D01*
X357840Y477625D01*
X334024Y476969D02*
Y480905D01*
X335992D01*
X336648Y480249D01*
Y478937D01*
X335992Y478281D01*
X334024D01*
X335336D02*
X336648Y476969D01*
X337960Y480249D02*
X338616Y480905D01*
X339928D01*
X340584Y480249D01*
Y479593D01*
X339928Y478937D01*
X339272D01*
X339928D01*
X340584Y478281D01*
Y477625D01*
X339928Y476969D01*
X338616D01*
X337960Y477625D01*
X344519Y476969D02*
X341896D01*
X344519Y479593D01*
Y480249D01*
X343863Y480905D01*
X342551D01*
X341896Y480249D01*
X366274Y476969D02*
Y480905D01*
X368242D01*
X368898Y480249D01*
Y478937D01*
X368242Y478281D01*
X366274D01*
X367586D02*
X368898Y476969D01*
X370210Y480249D02*
X370866Y480905D01*
X372178D01*
X372834Y480249D01*
Y479593D01*
X372178Y478937D01*
X371522D01*
X372178D01*
X372834Y478281D01*
Y477625D01*
X372178Y476969D01*
X370866D01*
X370210Y477625D01*
X374146Y476969D02*
X375458D01*
X374802D01*
Y480905D01*
X374146Y480249D01*
X381957Y476969D02*
Y480905D01*
X383925D01*
X384581Y480249D01*
Y478937D01*
X383925Y478281D01*
X381957D01*
X383269D02*
X384581Y476969D01*
X385893Y480249D02*
X386549Y480905D01*
X387861D01*
X388517Y480249D01*
Y479593D01*
X387861Y478937D01*
X387205D01*
X387861D01*
X388517Y478281D01*
Y477625D01*
X387861Y476969D01*
X386549D01*
X385893Y477625D01*
X389828Y480249D02*
X390484Y480905D01*
X391796D01*
X392452Y480249D01*
Y477625D01*
X391796Y476969D01*
X390484D01*
X389828Y477625D01*
Y480249D01*
X317193Y429823D02*
Y433759D01*
X319161D01*
X319817Y433103D01*
Y431791D01*
X319161Y431135D01*
X317193D01*
X318505D02*
X319817Y429823D01*
X323753D02*
X321129D01*
X323753Y432447D01*
Y433103D01*
X323097Y433759D01*
X321785D01*
X321129Y433103D01*
X325065Y430479D02*
X325721Y429823D01*
X327033D01*
X327689Y430479D01*
Y433103D01*
X327033Y433759D01*
X325721D01*
X325065Y433103D01*
Y432447D01*
X325721Y431791D01*
X327689D01*
X301937Y429922D02*
Y433858D01*
X303905D01*
X304561Y433202D01*
Y431890D01*
X303905Y431234D01*
X301937D01*
X303249D02*
X304561Y429922D01*
X308497D02*
X305873D01*
X308497Y432546D01*
Y433202D01*
X307841Y433858D01*
X306529D01*
X305873Y433202D01*
X309809D02*
X310465Y433858D01*
X311777D01*
X312433Y433202D01*
Y432546D01*
X311777Y431890D01*
X312433Y431234D01*
Y430578D01*
X311777Y429922D01*
X310465D01*
X309809Y430578D01*
Y431234D01*
X310465Y431890D01*
X309809Y432546D01*
Y433202D01*
X310465Y431890D02*
X311777D01*
X242784Y433268D02*
Y437204D01*
X244752D01*
X245408Y436548D01*
Y435236D01*
X244752Y434580D01*
X242784D01*
X244096D02*
X245408Y433268D01*
X249343D02*
X246720D01*
X249343Y435892D01*
Y436548D01*
X248688Y437204D01*
X247376D01*
X246720Y436548D01*
X250655Y437204D02*
X253279D01*
Y436548D01*
X250655Y433924D01*
Y433268D01*
X404443Y413177D02*
Y417112D01*
X406411D01*
X407067Y416457D01*
Y415145D01*
X406411Y414489D01*
X404443D01*
X405755D02*
X407067Y413177D01*
X411003D02*
X408379D01*
X411003Y415801D01*
Y416457D01*
X410347Y417112D01*
X409035D01*
X408379Y416457D01*
X414938Y417112D02*
X413626Y416457D01*
X412315Y415145D01*
Y413833D01*
X412971Y413177D01*
X414283D01*
X414938Y413833D01*
Y414489D01*
X414283Y415145D01*
X412315D01*
X272410Y432973D02*
Y436909D01*
X274378D01*
X275034Y436253D01*
Y434941D01*
X274378Y434285D01*
X272410D01*
X273722D02*
X275034Y432973D01*
X278969D02*
X276346D01*
X278969Y435597D01*
Y436253D01*
X278313Y436909D01*
X277002D01*
X276346Y436253D01*
X282905Y436909D02*
X280281D01*
Y434941D01*
X281593Y435597D01*
X282249D01*
X282905Y434941D01*
Y433629D01*
X282249Y432973D01*
X280937D01*
X280281Y433629D01*
X227528Y433268D02*
Y437204D01*
X229496D01*
X230152Y436548D01*
Y435236D01*
X229496Y434580D01*
X227528D01*
X228840D02*
X230152Y433268D01*
X234087D02*
X231464D01*
X234087Y435892D01*
Y436548D01*
X233432Y437204D01*
X232120D01*
X231464Y436548D01*
X237367Y433268D02*
Y437204D01*
X235399Y435236D01*
X238023D01*
X286189Y476969D02*
Y480905D01*
X288157D01*
X288813Y480249D01*
Y478937D01*
X288157Y478281D01*
X286189D01*
X287501D02*
X288813Y476969D01*
X292749D02*
X290125D01*
X292749Y479593D01*
Y480249D01*
X292093Y480905D01*
X290781D01*
X290125Y480249D01*
X294061D02*
X294717Y480905D01*
X296029D01*
X296685Y480249D01*
Y479593D01*
X296029Y478937D01*
X295373D01*
X296029D01*
X296685Y478281D01*
Y477625D01*
X296029Y476969D01*
X294717D01*
X294061Y477625D01*
X302134Y476969D02*
Y480905D01*
X304102D01*
X304758Y480249D01*
Y478937D01*
X304102Y478281D01*
X302134D01*
X303446D02*
X304758Y476969D01*
X308694D02*
X306070D01*
X308694Y479593D01*
Y480249D01*
X308038Y480905D01*
X306726D01*
X306070Y480249D01*
X312630Y476969D02*
X310006D01*
X312630Y479593D01*
Y480249D01*
X311974Y480905D01*
X310662D01*
X310006Y480249D01*
X257712Y431398D02*
Y435334D01*
X259679D01*
X260335Y434678D01*
Y433366D01*
X259679Y432710D01*
X257712D01*
X259023D02*
X260335Y431398D01*
X264271D02*
X261647D01*
X264271Y434022D01*
Y434678D01*
X263615Y435334D01*
X262303D01*
X261647Y434678D01*
X265583Y431398D02*
X266895D01*
X266239D01*
Y435334D01*
X265583Y434678D01*
X270540Y476969D02*
Y480905D01*
X272508D01*
X273164Y480249D01*
Y478937D01*
X272508Y478281D01*
X270540D01*
X271852D02*
X273164Y476969D01*
X277099D02*
X274476D01*
X277099Y479593D01*
Y480249D01*
X276443Y480905D01*
X275131D01*
X274476Y480249D01*
X278411D02*
X279067Y480905D01*
X280379D01*
X281035Y480249D01*
Y477625D01*
X280379Y476969D01*
X279067D01*
X278411Y477625D01*
Y480249D01*
X287403Y430020D02*
Y433956D01*
X289371D01*
X290027Y433300D01*
Y431988D01*
X289371Y431332D01*
X287403D01*
X288715D02*
X290027Y430020D01*
X291339D02*
X292651D01*
X291995D01*
Y433956D01*
X291339Y433300D01*
X294619Y430676D02*
X295275Y430020D01*
X296586D01*
X297242Y430676D01*
Y433300D01*
X296586Y433956D01*
X295275D01*
X294619Y433300D01*
Y432644D01*
X295275Y431988D01*
X297242D01*
X318309Y476969D02*
Y480905D01*
X320276D01*
X320933Y480249D01*
Y478937D01*
X320276Y478281D01*
X318309D01*
X319621D02*
X320933Y476969D01*
X322244D02*
X323556D01*
X322900D01*
Y480905D01*
X322244Y480249D01*
X325524D02*
X326180Y480905D01*
X327492D01*
X328148Y480249D01*
Y479593D01*
X327492Y478937D01*
X328148Y478281D01*
Y477625D01*
X327492Y476969D01*
X326180D01*
X325524Y477625D01*
Y478281D01*
X326180Y478937D01*
X325524Y479593D01*
Y480249D01*
X326180Y478937D02*
X327492D01*
X377691Y469225D02*
X377034Y469881D01*
X375723D01*
X375067Y469225D01*
Y466602D01*
X375723Y465945D01*
X377034D01*
X377691Y466602D01*
X379002Y469225D02*
X379658Y469881D01*
X380970D01*
X381626Y469225D01*
Y468569D01*
X380970Y467913D01*
X381626Y467257D01*
Y466602D01*
X380970Y465945D01*
X379658D01*
X379002Y466602D01*
Y467257D01*
X379658Y467913D01*
X379002Y468569D01*
Y469225D01*
X379658Y467913D02*
X380970D01*
X302026Y469225D02*
X301370Y469881D01*
X300058D01*
X299402Y469225D01*
Y466602D01*
X300058Y465945D01*
X301370D01*
X302026Y466602D01*
X303338Y469881D02*
X305962D01*
Y469225D01*
X303338Y466602D01*
Y465945D01*
X275919Y469225D02*
X275263Y469881D01*
X273951D01*
X273295Y469225D01*
Y466602D01*
X273951Y465945D01*
X275263D01*
X275919Y466602D01*
X279855Y469881D02*
X278543Y469225D01*
X277231Y467913D01*
Y466602D01*
X277887Y465945D01*
X279199D01*
X279855Y466602D01*
Y467257D01*
X279199Y467913D01*
X277231D01*
X352666Y469225D02*
X352010Y469881D01*
X350698D01*
X350042Y469225D01*
Y466602D01*
X350698Y465945D01*
X352010D01*
X352666Y466602D01*
X356602Y469881D02*
X353978D01*
Y467913D01*
X355290Y468569D01*
X355946D01*
X356602Y467913D01*
Y466602D01*
X355946Y465945D01*
X354634D01*
X353978Y466602D01*
X326755Y469225D02*
X326099Y469881D01*
X324788D01*
X324132Y469225D01*
Y466602D01*
X324788Y465945D01*
X326099D01*
X326755Y466602D01*
X330035Y465945D02*
Y469881D01*
X328067Y467913D01*
X330691D01*
X307645Y357480D02*
X310269D01*
X308957D01*
Y353544D01*
X314205D02*
X311581D01*
X314205Y356168D01*
Y356824D01*
X313549Y357480D01*
X312237D01*
X311581Y356824D01*
X432617Y356743D02*
X435240D01*
X433928D01*
Y352807D01*
X436552D02*
X437864D01*
X437208D01*
Y356743D01*
X436552Y356087D01*
X397607Y451060D02*
Y454996D01*
X399575D01*
X400231Y454340D01*
Y453028D01*
X399575Y452372D01*
X397607D01*
X398919D02*
X400231Y451060D01*
X401542D02*
X403510D01*
X404166Y451716D01*
X403510Y452372D01*
X402198D01*
X401542Y453028D01*
X402198Y453684D01*
X404166D01*
X408102Y451060D02*
X405478D01*
X408102Y453684D01*
Y454340D01*
X407446Y454996D01*
X406134D01*
X405478Y454340D01*
X397967Y477658D02*
Y481594D01*
X399935D01*
X400591Y480938D01*
Y479626D01*
X399935Y478970D01*
X397967D01*
X399279D02*
X400591Y477658D01*
X401903D02*
X403871D01*
X404527Y478314D01*
X403871Y478970D01*
X402559D01*
X401903Y479626D01*
X402559Y480282D01*
X404527D01*
X405839Y477658D02*
X407151D01*
X406495D01*
Y481594D01*
X405839Y480938D01*
X524083Y465912D02*
Y469848D01*
X526051D01*
X526707Y469192D01*
Y467880D01*
X526051Y467224D01*
X524083D01*
X525395D02*
X526707Y465912D01*
X529331Y464601D02*
X529987D01*
X530643Y465257D01*
Y468536D01*
X528675D01*
X528019Y467880D01*
Y466569D01*
X528675Y465912D01*
X530643D01*
X533922D02*
Y469848D01*
X531954Y467880D01*
X534578D01*
X547016Y466011D02*
Y469947D01*
X548984D01*
X549640Y469291D01*
Y467979D01*
X548984Y467323D01*
X547016D01*
X548328D02*
X549640Y466011D01*
X552264Y464699D02*
X552920D01*
X553576Y465355D01*
Y468635D01*
X551608D01*
X550952Y467979D01*
Y466667D01*
X551608Y466011D01*
X553576D01*
X554888Y469291D02*
X555544Y469947D01*
X556855D01*
X557511Y469291D01*
Y468635D01*
X556855Y467979D01*
X556200D01*
X556855D01*
X557511Y467323D01*
Y466667D01*
X556855Y466011D01*
X555544D01*
X554888Y466667D01*
X510008Y452822D02*
Y456758D01*
X511976D01*
X512632Y456102D01*
Y454790D01*
X511976Y454134D01*
X510008D01*
X511320D02*
X512632Y452822D01*
X515256Y451510D02*
X515912D01*
X516568Y452166D01*
Y455446D01*
X514600D01*
X513944Y454790D01*
Y453478D01*
X514600Y452822D01*
X516568D01*
X520504D02*
X517880D01*
X520504Y455446D01*
Y456102D01*
X519848Y456758D01*
X518536D01*
X517880Y456102D01*
X509756Y426728D02*
X505821D01*
Y428696D01*
X506476Y429352D01*
X507789D01*
X508444Y428696D01*
Y426728D01*
Y428040D02*
X509756Y429352D01*
X511068Y431975D02*
Y432631D01*
X510412Y433287D01*
X507132D01*
Y431319D01*
X507789Y430663D01*
X509100D01*
X509756Y431319D01*
Y433287D01*
Y434599D02*
Y435911D01*
Y435255D01*
X505821D01*
X506476Y434599D01*
X462830Y435138D02*
Y439074D01*
X464797D01*
X465453Y438418D01*
Y437106D01*
X464797Y436450D01*
X462830D01*
X464142D02*
X465453Y435138D01*
X468733D02*
Y439074D01*
X466765Y437106D01*
X469389D01*
X470701Y435138D02*
X472013D01*
X471357D01*
Y439074D01*
X470701Y438418D01*
X461288Y450722D02*
Y454658D01*
X463256D01*
X463912Y454002D01*
Y452690D01*
X463256Y452034D01*
X461288D01*
X462600D02*
X463912Y450722D01*
X467191D02*
Y454658D01*
X465224Y452690D01*
X467847D01*
X469159Y454002D02*
X469815Y454658D01*
X471127D01*
X471783Y454002D01*
Y451378D01*
X471127Y450722D01*
X469815D01*
X469159Y451378D01*
Y454002D01*
X461682Y483564D02*
Y487499D01*
X463649D01*
X464305Y486843D01*
Y485532D01*
X463649Y484875D01*
X461682D01*
X462993D02*
X464305Y483564D01*
X465617Y486843D02*
X466273Y487499D01*
X467585D01*
X468241Y486843D01*
Y486187D01*
X467585Y485532D01*
X466929D01*
X467585D01*
X468241Y484875D01*
Y484220D01*
X467585Y483564D01*
X466273D01*
X465617Y484220D01*
X469553D02*
X470209Y483564D01*
X471521D01*
X472177Y484220D01*
Y486843D01*
X471521Y487499D01*
X470209D01*
X469553Y486843D01*
Y486187D01*
X470209Y485532D01*
X472177D01*
X461288Y467783D02*
Y471719D01*
X463256D01*
X463912Y471063D01*
Y469751D01*
X463256Y469095D01*
X461288D01*
X462600D02*
X463912Y467783D01*
X465224Y471063D02*
X465879Y471719D01*
X467191D01*
X467847Y471063D01*
Y470407D01*
X467191Y469751D01*
X466535D01*
X467191D01*
X467847Y469095D01*
Y468439D01*
X467191Y467783D01*
X465879D01*
X465224Y468439D01*
X469159Y471063D02*
X469815Y471719D01*
X471127D01*
X471783Y471063D01*
Y470407D01*
X471127Y469751D01*
X471783Y469095D01*
Y468439D01*
X471127Y467783D01*
X469815D01*
X469159Y468439D01*
Y469095D01*
X469815Y469751D01*
X469159Y470407D01*
Y471063D01*
X469815Y469751D02*
X471127D01*
X444063Y435001D02*
Y438936D01*
X446031D01*
X446687Y438280D01*
Y436969D01*
X446031Y436313D01*
X444063D01*
X445375D02*
X446687Y435001D01*
X447999Y438280D02*
X448655Y438936D01*
X449967D01*
X450623Y438280D01*
Y437625D01*
X449967Y436969D01*
X449311D01*
X449967D01*
X450623Y436313D01*
Y435657D01*
X449967Y435001D01*
X448655D01*
X447999Y435657D01*
X451935Y438936D02*
X454559D01*
Y438280D01*
X451935Y435657D01*
Y435001D01*
X443473Y451667D02*
Y455603D01*
X445441D01*
X446097Y454947D01*
Y453635D01*
X445441Y452979D01*
X443473D01*
X444785D02*
X446097Y451667D01*
X447409Y454947D02*
X448065Y455603D01*
X449376D01*
X450032Y454947D01*
Y454291D01*
X449376Y453635D01*
X448721D01*
X449376D01*
X450032Y452979D01*
Y452323D01*
X449376Y451667D01*
X448065D01*
X447409Y452323D01*
X453968Y455603D02*
X452656Y454947D01*
X451344Y453635D01*
Y452323D01*
X452000Y451667D01*
X453312D01*
X453968Y452323D01*
Y452979D01*
X453312Y453635D01*
X451344D01*
X443571Y482934D02*
Y486869D01*
X445539D01*
X446195Y486213D01*
Y484902D01*
X445539Y484246D01*
X443571D01*
X444883D02*
X446195Y482934D01*
X447507Y486213D02*
X448163Y486869D01*
X449475D01*
X450131Y486213D01*
Y485558D01*
X449475Y484902D01*
X448819D01*
X449475D01*
X450131Y484246D01*
Y483590D01*
X449475Y482934D01*
X448163D01*
X447507Y483590D01*
X454067Y486869D02*
X451443D01*
Y484902D01*
X452755Y485558D01*
X453411D01*
X454067Y484902D01*
Y483590D01*
X453411Y482934D01*
X452099D01*
X451443Y483590D01*
X443866Y468078D02*
Y472014D01*
X445834D01*
X446490Y471358D01*
Y470046D01*
X445834Y469390D01*
X443866D01*
X445178D02*
X446490Y468078D01*
X447802Y471358D02*
X448458Y472014D01*
X449770D01*
X450426Y471358D01*
Y470702D01*
X449770Y470046D01*
X449114D01*
X449770D01*
X450426Y469390D01*
Y468734D01*
X449770Y468078D01*
X448458D01*
X447802Y468734D01*
X453706Y468078D02*
Y472014D01*
X451738Y470046D01*
X454362D01*
X538385Y352724D02*
X534449D01*
Y354692D01*
X535105Y355348D01*
X536417D01*
X537073Y354692D01*
Y352724D01*
Y354036D02*
X538385Y355348D01*
X537729Y356660D02*
X538385Y357316D01*
Y358628D01*
X537729Y359284D01*
X535105D01*
X534449Y358628D01*
Y357316D01*
X535105Y356660D01*
X535761D01*
X536417Y357316D01*
Y359284D01*
X195078Y418767D02*
X191142D01*
Y420735D01*
X191798Y421391D01*
X193110D01*
X193766Y420735D01*
Y418767D01*
Y420079D02*
X195078Y421391D01*
X191798Y422703D02*
X191142Y423359D01*
Y424671D01*
X191798Y425327D01*
X192454D01*
X193110Y424671D01*
X193766Y425327D01*
X194422D01*
X195078Y424671D01*
Y423359D01*
X194422Y422703D01*
X193766D01*
X193110Y423359D01*
X192454Y422703D01*
X191798D01*
X193110Y423359D02*
Y424671D01*
X574802Y352724D02*
X570867D01*
Y354692D01*
X571523Y355348D01*
X572835D01*
X573491Y354692D01*
Y352724D01*
Y354036D02*
X574802Y355348D01*
X570867Y356660D02*
Y359284D01*
X571523D01*
X574147Y356660D01*
X574802D01*
X591141Y352626D02*
X587205D01*
Y354594D01*
X587861Y355250D01*
X589173D01*
X589829Y354594D01*
Y352626D01*
Y353938D02*
X591141Y355250D01*
X587205Y359185D02*
X587861Y357873D01*
X589173Y356561D01*
X590485D01*
X591141Y357217D01*
Y358529D01*
X590485Y359185D01*
X589829D01*
X589173Y358529D01*
Y356561D01*
X466208Y362111D02*
Y366046D01*
X468176D01*
X468832Y365390D01*
Y364078D01*
X468176Y363423D01*
X466208D01*
X467520D02*
X468832Y362111D01*
X472768Y366046D02*
X470144D01*
Y364078D01*
X471456Y364735D01*
X472112D01*
X472768Y364078D01*
Y362767D01*
X472112Y362111D01*
X470800D01*
X470144Y362767D01*
X609350Y352134D02*
X605414D01*
Y354101D01*
X606070Y354757D01*
X607382D01*
X608038Y354101D01*
Y352134D01*
Y353446D02*
X609350Y354757D01*
Y358037D02*
X605414D01*
X607382Y356069D01*
Y358693D01*
X476543Y362111D02*
Y366046D01*
X478511D01*
X479167Y365390D01*
Y364078D01*
X478511Y363423D01*
X476543D01*
X477855D02*
X479167Y362111D01*
X480479Y365390D02*
X481135Y366046D01*
X482447D01*
X483103Y365390D01*
Y364735D01*
X482447Y364078D01*
X481791D01*
X482447D01*
X483103Y363423D01*
Y362767D01*
X482447Y362111D01*
X481135D01*
X480479Y362767D01*
X555905Y352330D02*
X551969D01*
Y354298D01*
X552625Y354954D01*
X553937D01*
X554593Y354298D01*
Y352330D01*
Y353642D02*
X555905Y354954D01*
Y358890D02*
Y356266D01*
X553281Y358890D01*
X552625D01*
X551969Y358234D01*
Y356922D01*
X552625Y356266D01*
X141851Y484023D02*
X141810Y486646D01*
X141144Y487292D01*
X139832Y487271D01*
X139187Y486605D01*
X139228Y483982D01*
X139894Y483336D01*
X141206Y483357D01*
X140529Y484658D02*
X141862Y483367D01*
X141206Y483357D02*
X141851Y484023D01*
X143173Y483388D02*
X144485Y483408D01*
X143829Y483398D01*
X143767Y487333D01*
X143122Y486667D01*
X447872Y411678D02*
Y415614D01*
X449840D01*
X450496Y414958D01*
Y413646D01*
X449840Y412990D01*
X447872D01*
X451808Y414958D02*
X452464Y415614D01*
X453776D01*
X454431Y414958D01*
Y414302D01*
X453776Y413646D01*
X454431Y412990D01*
Y412334D01*
X453776Y411678D01*
X452464D01*
X451808Y412334D01*
Y412990D01*
X452464Y413646D01*
X451808Y414302D01*
Y414958D01*
X452464Y413646D02*
X453776D01*
X472548Y411678D02*
Y415614D01*
X474516D01*
X475172Y414958D01*
Y413646D01*
X474516Y412990D01*
X472548D01*
X479108Y415614D02*
X477796Y414958D01*
X476484Y413646D01*
Y412334D01*
X477140Y411678D01*
X478452D01*
X479108Y412334D01*
Y412990D01*
X478452Y413646D01*
X476484D01*
X548361Y411678D02*
Y415614D01*
X550329D01*
X550985Y414958D01*
Y413646D01*
X550329Y412990D01*
X548361D01*
X554920Y415614D02*
X552296D01*
Y413646D01*
X553608Y414302D01*
X554264D01*
X554920Y413646D01*
Y412334D01*
X554264Y411678D01*
X552952D01*
X552296Y412334D01*
X599193Y411678D02*
Y415614D01*
X601161D01*
X601817Y414958D01*
Y413646D01*
X601161Y412990D01*
X599193D01*
X605097Y411678D02*
Y415614D01*
X603129Y413646D01*
X605753D01*
X523094Y411678D02*
Y415614D01*
X525062D01*
X525717Y414958D01*
Y413646D01*
X525062Y412990D01*
X523094D01*
X527029Y414958D02*
X527685Y415614D01*
X528997D01*
X529653Y414958D01*
Y414302D01*
X528997Y413646D01*
X528341D01*
X528997D01*
X529653Y412990D01*
Y412334D01*
X528997Y411678D01*
X527685D01*
X527029Y412334D01*
X573829Y411678D02*
Y415614D01*
X575797D01*
X576453Y414958D01*
Y413646D01*
X575797Y412990D01*
X573829D01*
X580388Y411678D02*
X577765D01*
X580388Y414302D01*
Y414958D01*
X579732Y415614D01*
X578420D01*
X577765Y414958D01*
X421786Y411678D02*
Y415614D01*
X423753D01*
X424409Y414958D01*
Y413646D01*
X423753Y412990D01*
X421786D01*
X425721Y411678D02*
X427033D01*
X426377D01*
Y415614D01*
X425721Y414958D01*
X192158Y449284D02*
X196094D01*
Y451908D01*
X192814Y453220D02*
X192158Y453876D01*
Y455188D01*
X192814Y455844D01*
X193470D01*
X194126Y455188D01*
Y454532D01*
Y455188D01*
X194782Y455844D01*
X195438D01*
X196094Y455188D01*
Y453876D01*
X195438Y453220D01*
X191690Y470814D02*
X195625D01*
Y473437D01*
Y477373D02*
Y474749D01*
X193001Y477373D01*
X192346D01*
X191690Y476717D01*
Y475405D01*
X192346Y474749D01*
X156661Y470570D02*
Y466635D01*
X158629D01*
X159285Y467290D01*
Y469914D01*
X158629Y470570D01*
X156661D01*
X163221Y466635D02*
X160597D01*
X163221Y469258D01*
Y469914D01*
X162565Y470570D01*
X161253D01*
X160597Y469914D01*
X147930Y470549D02*
Y466613D01*
X149898D01*
X150553Y467269D01*
Y469893D01*
X149898Y470549D01*
X147930D01*
X151865Y466613D02*
X153177D01*
X152521D01*
Y470549D01*
X151865Y469893D01*
X588354Y457611D02*
X587698Y458267D01*
X586386D01*
X585730Y457611D01*
Y454987D01*
X586386Y454331D01*
X587698D01*
X588354Y454987D01*
X589666Y454331D02*
X590978D01*
X590322D01*
Y458267D01*
X589666Y457611D01*
X592945Y458267D02*
X595569D01*
Y457611D01*
X592945Y454987D01*
Y454331D01*
X570440Y429166D02*
X569784Y429822D01*
X568472D01*
X567817Y429166D01*
Y426542D01*
X568472Y425886D01*
X569784D01*
X570440Y426542D01*
X571752Y425886D02*
X573064D01*
X572408D01*
Y429822D01*
X571752Y429166D01*
X577656Y429822D02*
X576344Y429166D01*
X575032Y427854D01*
Y426542D01*
X575688Y425886D01*
X577000D01*
X577656Y426542D01*
Y427198D01*
X577000Y427854D01*
X575032D01*
X592881Y428871D02*
X592225Y429527D01*
X590913D01*
X590258Y428871D01*
Y426247D01*
X590913Y425591D01*
X592225D01*
X592881Y426247D01*
X594193Y425591D02*
X595505D01*
X594849D01*
Y429527D01*
X594193Y428871D01*
X600097Y429527D02*
X597473D01*
Y427559D01*
X598785Y428215D01*
X599441D01*
X600097Y427559D01*
Y426247D01*
X599441Y425591D01*
X598129D01*
X597473Y426247D01*
X490125Y421784D02*
X489469Y422440D01*
X488158D01*
X487502Y421784D01*
Y419161D01*
X488158Y418505D01*
X489469D01*
X490125Y419161D01*
X491437Y418505D02*
X492749D01*
X492093D01*
Y422440D01*
X491437Y421784D01*
X496685Y418505D02*
Y422440D01*
X494717Y420472D01*
X497341D01*
X489633Y481233D02*
X488977Y481889D01*
X487665D01*
X487009Y481233D01*
Y478609D01*
X487665Y477953D01*
X488977D01*
X489633Y478609D01*
X490945Y477953D02*
X492257D01*
X491601D01*
Y481889D01*
X490945Y481233D01*
X494225D02*
X494881Y481889D01*
X496193D01*
X496849Y481233D01*
Y480577D01*
X496193Y479921D01*
X495537D01*
X496193D01*
X496849Y479265D01*
Y478609D01*
X496193Y477953D01*
X494881D01*
X494225Y478609D01*
X427921Y439402D02*
X427265Y440058D01*
X425953D01*
X425297Y439402D01*
Y436779D01*
X425953Y436123D01*
X427265D01*
X427921Y436779D01*
X429233Y436123D02*
X430545D01*
X429889D01*
Y440058D01*
X429233Y439402D01*
X435136Y436123D02*
X432512D01*
X435136Y438747D01*
Y439402D01*
X434480Y440058D01*
X433168D01*
X432512Y439402D01*
X406532Y486745D02*
X405876Y487401D01*
X404564D01*
X403908Y486745D01*
Y484121D01*
X404564Y483465D01*
X405876D01*
X406532Y484121D01*
X407844Y483465D02*
X409156D01*
X408500D01*
Y487401D01*
X407844Y486745D01*
X411124Y483465D02*
X412436D01*
X411780D01*
Y487401D01*
X411124Y486745D01*
X361558Y440780D02*
X360902Y441436D01*
X359591D01*
X358934Y440780D01*
Y438157D01*
X359591Y437501D01*
X360902D01*
X361558Y438157D01*
X362870Y437501D02*
X364182D01*
X363526D01*
Y441436D01*
X362870Y440780D01*
X366150D02*
X366806Y441436D01*
X368118D01*
X368774Y440780D01*
Y438157D01*
X368118Y437501D01*
X366806D01*
X366150Y438157D01*
Y440780D01*
X370086Y441436D02*
Y437501D01*
X372054D01*
X372710Y438157D01*
Y438812D01*
X372054Y439468D01*
X370086D01*
X372054D01*
X372710Y440124D01*
Y440780D01*
X372054Y441436D01*
X370086D01*
X339732Y440387D02*
X339076Y441043D01*
X337765D01*
X337108Y440387D01*
Y437763D01*
X337765Y437107D01*
X339076D01*
X339732Y437763D01*
X341044Y437107D02*
X342356D01*
X341700D01*
Y441043D01*
X341044Y440387D01*
X344324D02*
X344980Y441043D01*
X346292D01*
X346948Y440387D01*
Y437763D01*
X346292Y437107D01*
X344980D01*
X344324Y437763D01*
Y440387D01*
X348260Y437107D02*
Y439731D01*
X349572Y441043D01*
X350884Y439731D01*
Y437107D01*
Y439075D01*
X348260D01*
X405939Y440682D02*
X405283Y441338D01*
X403971D01*
X403315Y440682D01*
Y438058D01*
X403971Y437402D01*
X405283D01*
X405939Y438058D01*
X407251D02*
X407907Y437402D01*
X409219D01*
X409875Y438058D01*
Y440682D01*
X409219Y441338D01*
X407907D01*
X407251Y440682D01*
Y440026D01*
X407907Y439370D01*
X409875D01*
X411187Y441338D02*
Y437402D01*
X413155D01*
X413811Y438058D01*
Y438714D01*
X413155Y439370D01*
X411187D01*
X413155D01*
X413811Y440026D01*
Y440682D01*
X413155Y441338D01*
X411187D01*
X384113Y440387D02*
X383457Y441043D01*
X382145D01*
X381489Y440387D01*
Y437763D01*
X382145Y437107D01*
X383457D01*
X384113Y437763D01*
X385425D02*
X386081Y437107D01*
X387393D01*
X388049Y437763D01*
Y440387D01*
X387393Y441043D01*
X386081D01*
X385425Y440387D01*
Y439731D01*
X386081Y439075D01*
X388049D01*
X389361Y437107D02*
Y439731D01*
X390673Y441043D01*
X391985Y439731D01*
Y437107D01*
Y439075D01*
X389361D01*
X230338Y448340D02*
X229682Y447684D01*
Y446372D01*
X230338Y445716D01*
X232962D01*
X233617Y446372D01*
Y447684D01*
X232962Y448340D01*
X230338Y449651D02*
X229682Y450307D01*
Y451619D01*
X230338Y452275D01*
X230994D01*
X231650Y451619D01*
Y450963D01*
Y451619D01*
X232306Y452275D01*
X232962D01*
X233617Y451619D01*
Y450307D01*
X232962Y449651D01*
X229682Y453587D02*
X233617D01*
Y455555D01*
X232962Y456211D01*
X232306D01*
X231650Y455555D01*
Y453587D01*
Y455555D01*
X230994Y456211D01*
X230338D01*
X229682Y455555D01*
Y453587D01*
X210597Y447967D02*
X209942Y447311D01*
Y445999D01*
X210597Y445343D01*
X213221D01*
X213877Y445999D01*
Y447311D01*
X213221Y447967D01*
X210597Y449279D02*
X209942Y449935D01*
Y451247D01*
X210597Y451902D01*
X211253D01*
X211910Y451247D01*
Y450591D01*
Y451247D01*
X212565Y451902D01*
X213221D01*
X213877Y451247D01*
Y449935D01*
X213221Y449279D01*
X213877Y453214D02*
X211253D01*
X209942Y454526D01*
X211253Y455838D01*
X213877D01*
X211910D01*
Y453214D01*
X230042Y469206D02*
X229386Y468550D01*
Y467238D01*
X230042Y466582D01*
X232666D01*
X233322Y467238D01*
Y468550D01*
X232666Y469206D01*
X233322Y473141D02*
Y470518D01*
X230698Y473141D01*
X230042D01*
X229386Y472485D01*
Y471173D01*
X230042Y470518D01*
X229386Y474453D02*
X233322D01*
Y476421D01*
X232666Y477077D01*
X232010D01*
X231354Y476421D01*
Y474453D01*
Y476421D01*
X230698Y477077D01*
X230042D01*
X229386Y476421D01*
Y474453D01*
X210357Y468812D02*
X209701Y468156D01*
Y466844D01*
X210357Y466188D01*
X212981D01*
X213637Y466844D01*
Y468156D01*
X212981Y468812D01*
X213637Y472748D02*
Y470124D01*
X211013Y472748D01*
X210357D01*
X209701Y472092D01*
Y470780D01*
X210357Y470124D01*
X213637Y474060D02*
X211013D01*
X209701Y475372D01*
X211013Y476684D01*
X213637D01*
X211669D01*
Y474060D01*
X180764Y459460D02*
X180108Y460116D01*
X178796D01*
X178140Y459460D01*
Y456837D01*
X178796Y456180D01*
X180108D01*
X180764Y456837D01*
X182076Y456180D02*
X183388D01*
X182732D01*
Y460116D01*
X182076Y459460D01*
X621383Y480995D02*
X620072D01*
X620727D01*
Y477716D01*
X620072Y477060D01*
X619416D01*
X618760Y477716D01*
X622695Y480339D02*
X623351Y480995D01*
X624663D01*
X625319Y480339D01*
Y479683D01*
X624663Y479028D01*
X624007D01*
X624663D01*
X625319Y478372D01*
Y477716D01*
X624663Y477060D01*
X623351D01*
X622695Y477716D01*
X133916Y482347D02*
X132604D01*
X133260D01*
Y479068D01*
X132604Y478412D01*
X131948D01*
X131292Y479068D01*
X135228Y478412D02*
X136540D01*
X135884D01*
Y482347D01*
X135228Y481692D01*
D20*
X160236Y438156D02*
D03*
X150398Y451020D02*
D03*
M02*
