M48
;Layer_Color=9474304
;FILE_FORMAT=2:5
INCH,LZ
;TYPE=PLATED
T01F00S00C0.02800
T02F00S00C0.02953
T03F00S00C0.03150
T04F00S00C0.03200
T05F00S00C0.03346
T06F00S00C0.03900
T07F00S00C0.03937
T08F00S00C0.04331
T09F00S00C0.05000
%
T01
X02125Y0351358
X0231102Y0343996
X0250886Y0355906
X0263976Y0359941
X0288583Y0352362
X0288681Y0344783
X0300295Y0421654
X0294291Y0436811
X0331791Y0433957
X034498Y0402165
X0341043Y0364272
X0410532Y0367618
X0410433Y0348819
X0432382Y0348628
X0427756Y0364075
X0469587Y0346752
X0542815Y0345669
X0551378Y03625
T02
X0276575Y0449606
Y0459449
X0302092
Y0449606
X0327608
Y0459449
X0353125
Y0449606
X0378642
Y0459449
X0422835Y0456398
Y0446555
X0491831Y0439272
Y0429429
Y0461319
X0577539Y044589
Y0436047
X0602953Y0436024
Y0445866
X0595374Y0469291
X0585532
X0491831Y0471161
X0422195Y0470866
Y0480709
T03
X0160295Y0478445
X0155295
X0150295
T04
X0176335Y0448011
X0186177
X0220916Y0445731
Y0455574
Y0466219
X0240409
Y0455574
Y0445731
X0339075Y0429528
X0348917
X0360507
X037035
X0381619
X0391461
X0403051
X0412894
X0240409Y0476062
X0220916
T05
X0150394Y042687
Y0462303
X0160236
Y042687
T06
X0137Y04395
Y04495
Y04595
X0492039Y03495
X0502039
X0512039
X0522039
X0622Y04395
Y04495
Y04595
Y04695
X0137
T07
X0527618Y0427421
X0537618
X0547618
X0557618
Y0457421
X0547618
X0537618
X0527618
T08
X0361772Y0352573
Y0362573
Y0372573
Y0382573
Y0392573
Y0402573
Y0412573
X0391772
Y0402573
Y0392573
Y0382573
Y0372573
Y0362573
Y0352573
T09
X0147441Y0378543
Y0388937
Y0399331
X0172807
Y0388937
Y0378543
X0198172
Y0388937
Y0399331
X0223538
Y0388937
Y0378543
X0248903
Y0388937
Y0399331
X0274269
Y0388937
Y0378543
X0299634
Y0388937
Y0399331
X0325
Y0388937
Y0378543
X0431298
Y0388937
Y0399331
X0456664
Y0388937
Y0378543
X0482029
Y0388937
Y0399331
X0507395
Y0388937
Y0378543
X053276
Y0388937
Y0399331
X0558126
Y0388937
Y0378543
X0583491
Y0388937
Y0399331
X0608857
Y0388937
Y0378543
M30
