%TF.GenerationSoftware,KiCad,Pcbnew,8.0.6*%
%TF.CreationDate,2025-03-06T20:58:27-05:00*%
%TF.ProjectId,ECE295,45434532-3935-42e6-9b69-6361645f7063,rev?*%
%TF.SameCoordinates,Original*%
%TF.FileFunction,Copper,L1,Top*%
%TF.FilePolarity,Positive*%
%FSLAX46Y46*%
G04 Gerber Fmt 4.6, Leading zero omitted, Abs format (unit mm)*
G04 Created by KiCad (PCBNEW 8.0.6) date 2025-03-06 20:58:27*
%MOMM*%
%LPD*%
G01*
G04 APERTURE LIST*
%TA.AperFunction,SMDPad,CuDef*%
%ADD10R,0.660000X1.200000*%
%TD*%
%TA.AperFunction,SMDPad,CuDef*%
%ADD11R,1.060000X1.020000*%
%TD*%
%TA.AperFunction,ComponentPad*%
%ADD12C,1.600000*%
%TD*%
%TA.AperFunction,ViaPad*%
%ADD13C,0.600000*%
%TD*%
%TA.AperFunction,Conductor*%
%ADD14C,0.200000*%
%TD*%
G04 APERTURE END LIST*
D10*
%TO.P,L3,2,2*%
%TO.N,AC*%
X142165000Y-97360000D03*
%TO.P,L3,1,1*%
%TO.N,Net-(C3-Pad2)*%
X140405000Y-97360000D03*
%TD*%
D11*
%TO.P,L2,2,2*%
%TO.N,GND*%
X142336000Y-94524000D03*
%TO.P,L2,1,1*%
%TO.N,Net-(C2-Pad1)*%
X140880000Y-94524000D03*
%TD*%
%TO.P,L1,1,1*%
%TO.N,AC*%
X140880000Y-91958000D03*
%TO.P,L1,2,2*%
%TO.N,GND*%
X142336000Y-91958000D03*
%TD*%
D12*
%TO.P,C6,1*%
%TO.N,Net-(C3-Pad2)*%
X135500000Y-109300000D03*
%TO.P,C6,2*%
%TO.N,Net-(C2-Pad1)*%
X138000000Y-109300000D03*
%TD*%
%TO.P,C5,2*%
%TO.N,GND*%
X138000000Y-105150000D03*
%TO.P,C5,1*%
%TO.N,AC*%
X135500000Y-105150000D03*
%TD*%
%TO.P,C4,2*%
%TO.N,GND*%
X138000000Y-101000000D03*
%TO.P,C4,1*%
%TO.N,Net-(C2-Pad1)*%
X135500000Y-101000000D03*
%TD*%
%TO.P,C3,2*%
%TO.N,Net-(C3-Pad2)*%
X138000000Y-97000000D03*
%TO.P,C3,1*%
%TO.N,Net-(C2-Pad1)*%
X135500000Y-97000000D03*
%TD*%
%TO.P,C2,2*%
%TO.N,GND*%
X138000000Y-93000000D03*
%TO.P,C2,1*%
%TO.N,Net-(C2-Pad1)*%
X135500000Y-93000000D03*
%TD*%
%TO.P,C1,1*%
%TO.N,AC*%
X135500000Y-88600000D03*
%TO.P,C1,2*%
%TO.N,GND*%
X138000000Y-88600000D03*
%TD*%
D13*
%TO.N,GND*%
X142000000Y-90500000D03*
%TO.N,Net-(C2-Pad1)*%
X140650000Y-94500000D03*
%TO.N,Net-(C3-Pad2)*%
X139700000Y-97500000D03*
%TD*%
D14*
%TO.N,GND*%
X142000000Y-90500000D02*
X142000000Y-91622000D01*
X142000000Y-91622000D02*
X142336000Y-91958000D01*
X138000000Y-105150000D02*
X142795000Y-100355000D01*
X142795000Y-100355000D02*
X142795000Y-94983000D01*
X142795000Y-94983000D02*
X142336000Y-94524000D01*
X142336000Y-94524000D02*
X142336000Y-91958000D01*
%TO.N,Net-(C2-Pad1)*%
X140674000Y-94524000D02*
X140650000Y-94500000D01*
X140880000Y-94524000D02*
X140674000Y-94524000D01*
%TO.N,Net-(C3-Pad2)*%
X140405000Y-97360000D02*
X139840000Y-97360000D01*
X139840000Y-97360000D02*
X139700000Y-97500000D01*
X140405000Y-97360000D02*
X140640000Y-97360000D01*
X140405000Y-97360000D02*
X140265000Y-97500000D01*
X138000000Y-97000000D02*
X138500000Y-97000000D01*
%TO.N,AC*%
X138500000Y-87544365D02*
X138500000Y-87500000D01*
X140500000Y-89544365D02*
X138500000Y-87544365D01*
X138500000Y-87500000D02*
X136600000Y-87500000D01*
X140500000Y-91958000D02*
X140500000Y-89544365D01*
X140500000Y-91958000D02*
X140880000Y-91958000D01*
X136600000Y-87500000D02*
X135500000Y-88600000D01*
%TO.N,Net-(C2-Pad1)*%
X138000000Y-109300000D02*
X134400000Y-105700000D01*
X134400000Y-105700000D02*
X134400000Y-102100000D01*
X134400000Y-102100000D02*
X135500000Y-101000000D01*
%TO.N,GND*%
X138000000Y-101000000D02*
X139100000Y-99900000D01*
X139100000Y-99900000D02*
X139100000Y-94100000D01*
X139100000Y-94100000D02*
X138000000Y-93000000D01*
%TO.N,Net-(C2-Pad1)*%
X140880000Y-94707892D02*
X140650000Y-94937892D01*
X140880000Y-94524000D02*
X140880000Y-94707892D01*
X135500000Y-97000000D02*
X135500000Y-93000000D01*
%TO.N,AC*%
X142165000Y-97360000D02*
X142165000Y-98485000D01*
X142165000Y-98485000D02*
X135500000Y-105150000D01*
X140880000Y-91958000D02*
X140050000Y-92788000D01*
X140050000Y-95245000D02*
X142165000Y-97360000D01*
X140050000Y-92788000D02*
X140050000Y-95245000D01*
%TO.N,Net-(C2-Pad1)*%
X135500000Y-101000000D02*
X135500000Y-97000000D01*
%TD*%
M02*
